<?xml version="1.0" encoding="utf-8"?>
<!-- Generator: Adobe Illustrator 25.2.3, SVG Export Plug-In . SVG Version: 6.00 Build 0)  -->
<svg version="1.1" id="Layer_1" xmlns="http://www.w3.org/2000/svg" xmlns:xlink="http://www.w3.org/1999/xlink" x="0px" y="0px"
	 viewBox="0 0 425.4 120" style="enable-background:new 0 0 425.4 120;" xml:space="preserve">
<style type="text/css">
	.st0{fill:#E3032E;}
</style>
<g>
	<path class="st0" d="M347.4,73.8h1.3c1.4,0,1.6,0.3,1.6,2.7v8.8c0,1.7-0.2,2.3-2,2.3h-1.2v1.8h10.1v-1.8h-0.4c-1.8,0-2-0.6-2-2.3
		v-5.9c0-3.4,1.8-5.2,4.4-5.2c1.9,0,3.2,1.1,3.2,3.7v7.4c0,1.7-0.2,2.3-2,2.3h-0.6v1.8h9.9v-1.8h-0.9c-1.8,0-2-0.6-2-2.3v-8.5
		c0-3.9-2.7-5.5-6.3-5.5c-2.9,0-5,1.2-6.2,4.1h-0.1v-4c-1.8,0.2-5,0.4-6.8,0.4V73.8z M344.6,80.9v-0.8c0-6-2.4-8.7-8.2-8.7
		c-6,0-8.6,4-8.6,9.3s2.6,9.3,8.6,9.3s7.8-3.1,7.8-6.2h-3.7c0,2.7-1.1,4.1-3.7,4.1c-4.4,0-4.5-4.5-4.5-6.9h12.3V80.9z M332.4,78.8
		c0-3,0.9-5.5,4-5.5s3.8,2.6,3.8,5.5H332.4z M318.6,77.6c0,3.1-0.9,4.6-2.8,4.6s-3.1-1.4-3.1-4.6c0-3.1,1.1-4.3,3.1-4.3
		C317.5,73.3,318.6,74.3,318.6,77.6 M320.2,92.4c0,1.7-1.1,3.4-4.5,3.4c-3,0-4.2-1.4-4.2-3.2c0-1.9,1.1-3.5,4.3-3.5
		C318.9,89.1,320.2,90.5,320.2,92.4 M325.4,71.7l-5.3,0.5c-1-0.3-2.7-0.8-4.2-0.8c-4.7,0-7.8,2.7-7.8,6.2c0,3.3,2.1,4.9,4.7,5.8v0.1
		c-2.5,0.2-3.5,1.1-3.5,2.3c0,1.2,0.8,1.8,3.2,2.3V88c-2.5,0.3-5.5,1.6-5.5,4.5s2.5,5.2,8.2,5.2c6,0,9.4-2,9.4-5.3
		c0-4.2-3.4-4.7-6.8-5c-4-0.3-4.6-0.6-4.6-1.7c0-1.2,1.6-1.4,2.8-1.5l0.9-0.1c5-0.8,6.6-3.5,6.6-6.4c0-1.5-0.7-2.9-1.6-3.6V74h3.5
		L325.4,71.7L325.4,71.7z M282.9,73.8h1.3c1.4,0,1.6,0.3,1.6,2.7v8.8c0,1.7-0.2,2.3-2,2.3h-1.2v1.8h10.1v-1.8h-0.5
		c-1.8,0-2-0.6-2-2.3v-5.9c0-3.4,1.8-5.2,4.4-5.2c1.9,0,3.2,1.1,3.2,3.7v7.4c0,1.7-0.2,2.3-2,2.3h-0.5v1.8h9.9v-1.8h-0.9
		c-1.8,0-2-0.6-2-2.3v-8.5c0-3.9-2.7-5.5-6.3-5.5c-2.9,0-5,1.2-6.2,4.1h-0.1v-4c-1.8,0.2-5,0.4-6.8,0.4V73.8z M273.1,65.8
		c0,1.5,0.9,2.7,2.6,2.7s2.6-1.2,2.6-2.7s-0.9-2.7-2.6-2.7C274.1,63.1,273.1,64.2,273.1,65.8 M270.7,73.8h1.3c1.4,0,1.6,0.3,1.6,2.7
		v8.8c0,1.7-0.2,2.3-2,2.3h-1.2v1.8h10.5v-1.8H280c-1.8,0-2-0.6-2-2.3V71.5c-2.3,0.2-5.5,0.4-7.3,0.4V73.8z M246.5,73.8h1.3
		c1.4,0,1.6,0.3,1.6,2.7v8.8c0,1.7-0.2,2.3-2,2.3h-1.2v1.8h10.1v-1.8h-0.5c-1.8,0-2-0.6-2-2.3v-5.9c0-3.4,1.8-5.2,4.4-5.2
		c1.9,0,3.2,1.1,3.2,3.7v7.4c0,1.7-0.2,2.3-2,2.3h-0.5v1.8h9.9v-1.8h-1c-1.8,0-2-0.6-2-2.3v-8.5c0-3.9-2.7-5.5-6.3-5.5
		c-2.9,0-5,1.2-6.2,4.1h-0.1v-4c-1.8,0.2-5,0.4-6.8,0.4v2H246.5z M226.8,80.6c0,5.3,2.6,9.3,8.6,9.3s8.6-4,8.6-9.3s-2.6-9.3-8.6-9.3
		C229.4,71.4,226.8,75.3,226.8,80.6 M231.4,80.6c0-4.9,1.1-7.2,4-7.2s4,2.3,4,7.2c0,4.9-1.1,7.2-4,7.2
		C232.5,87.8,231.4,85.5,231.4,80.6 M209,73.8h1.5c1.4,0,1.6,0.3,1.6,2.7v8.8c0,1.7-0.2,2.3-2,2.3h-1.2v1.8h11.5v-1.8h-1.9
		c-1.8,0-2-0.6-2-2.3v-5.9c0-3,1.7-5.2,3.3-5.2c1.4,0,1.8,1,1.8,2.8h3.5v-5.2c-0.8-0.3-1.8-0.4-2.9-0.4c-2.9,0-5,1.2-6.2,4.1h-0.1
		v-4c-1.8,0.2-5,0.4-7,0.4L209,73.8L209,73.8z M200.6,77.6c0,3.1-0.9,4.6-2.8,4.6c-1.9,0-3.1-1.4-3.1-4.6c0-3.1,1.1-4.3,3.1-4.3
		C199.5,73.3,200.6,74.3,200.6,77.6 M202.1,92.4c0,1.7-1.1,3.4-4.5,3.4c-3,0-4.2-1.4-4.2-3.2c0-1.9,1.1-3.5,4.3-3.5
		C200.8,89.1,202.1,90.5,202.1,92.4 M207.4,71.7l-5.3,0.5c-1-0.3-2.7-0.8-4.2-0.8c-4.7,0-7.8,2.7-7.8,6.2c0,3.3,2,4.9,4.8,5.8v0.1
		c-2.5,0.2-3.5,1.1-3.5,2.3c0,1.2,0.8,1.8,3.2,2.3V88c-2.5,0.3-5.5,1.6-5.5,4.5s2.5,5.2,8.2,5.2c6,0,9.4-2,9.4-5.3
		c0-4.2-3.4-4.7-6.8-5c-4-0.3-4.6-0.6-4.6-1.7c0-1.2,1.6-1.4,2.8-1.5l0.9-0.1c5-0.8,6.6-3.5,6.6-6.4c0-1.5-0.7-2.9-1.6-3.6V74h3.5
		L207.4,71.7L207.4,71.7z"/>
	<path class="st0" d="M397.1,38h3.2v11.3c0,1.7-0.2,2.3-2,2.3h-1.1v1.8h11.5v-1.8h-1.9c-1.8,0-2-0.6-2-2.3V38h4.7v-2h-4.7v-3.6
		c0-2.2,0.9-3.2,2.3-3.2c1.3,0,1.8,0.8,1.8,3.2h3v-4.7c-1.4-0.3-3-0.5-4.8-0.5c-6.5,0-6.8,4-6.8,8.9h-3.2V38z M377.7,44.7
		c0,5.3,2.6,9.3,8.6,9.3s8.6-4,8.6-9.3s-2.6-9.3-8.6-9.3C380.2,35.4,377.7,39.3,377.7,44.7 M382.3,44.7c0-4.9,1.1-7.2,4-7.2
		s4,2.3,4,7.2s-1.1,7.2-4,7.2C383.3,51.9,382.3,49.6,382.3,44.7 M360,52.9l-1.7,4.4c-0.5,1.3-0.9,2-2.3,2h-1.6v1.8h9.6v-1.8h-1.2
		c-1.4,0-1.8-0.3-1.8-1.1c0-0.6,0.4-1.4,0.6-1.9l7.1-16.9c0.5-1.2,0.8-1.8,1.6-1.8h0.8V36h-7.6v1.8h1.5c0.6,0,0.9,0.1,0.9,0.6
		c0,0.3-0.2,0.8-0.4,1.3l-3.3,8.4l-3-8c-0.2-0.6-0.5-1.1-0.5-1.6s0.4-0.6,1-0.6h1.3V36h-8.9v1.8h0.5c0.9,0,1.3,0.5,2,2.3L360,52.9z
		 M335.9,38h3.2v10.3c0,4.5,2,5.6,5.6,5.6c3.5,0,5.5-1.7,5.5-5.6v-0.8h-3v1.8c0,1.5-0.6,2.2-1.9,2.2s-1.9-0.7-1.9-2.2V38h5.8v-2
		h-5.8v-5.1h-3.1c-0.3,3.6-1.1,4.7-4.4,5.1L335.9,38L335.9,38z M326.4,29.8c0,1.5,0.9,2.7,2.6,2.7s2.6-1.2,2.6-2.7s-0.9-2.7-2.6-2.7
		C327.3,27.1,326.4,28.3,326.4,29.8 M323.9,37.8h1.3c1.4,0,1.6,0.3,1.6,2.7v8.8c0,1.7-0.2,2.3-2,2.3h-1.2v1.8h10.5v-1.8h-0.9
		c-1.8,0-2-0.6-2-2.3V35.5c-2.3,0.2-5.5,0.4-7.3,0.4V37.8z M306.7,52.8c1,0.4,3.7,1.1,6.6,1.1c3.8,0,7.8-1.6,7.8-5.8
		c0-2.7-1.4-3.8-4.5-4.8l-2.9-1c-1.7-0.5-2.6-1.5-2.6-2.9s1-2.1,2.7-2.1c2.6,0,3.3,1.2,3.3,3.9h3v-4.9c-1-0.5-3.5-1-6.2-1
		c-4.2,0-7.2,2-7.2,5.3c0,2.8,2,4.3,6.2,5.6c3.3,1,3.8,1.8,3.8,3.1c0,1.7-1.5,2.6-3.8,2.6c-2.5,0-3.2-1.7-3.2-4.2h-3L306.7,52.8
		L306.7,52.8z M288,37.8h1.5c1.4,0,1.6,0.3,1.6,2.7v8.8c0,1.7-0.2,2.3-2,2.3h-1.2v1.8h11.5v-1.8h-1.9c-1.8,0-2-0.6-2-2.3v-5.9
		c0-3,1.7-5.3,3.3-5.3c1.4,0,1.8,1,1.8,2.8h3.5v-5.2c-0.8-0.3-1.8-0.4-2.9-0.4c-2.9,0-5,1.2-6.2,4.1h-0.1v-4c-1.8,0.2-5,0.4-7,0.4v2
		H288z M285.4,45v-0.8c0-6-2.4-8.7-8.2-8.7c-6,0-8.6,4-8.6,9.3s2.6,9.3,8.6,9.3s7.8-3.1,7.8-6.2h-3.7c0,2.7-1.1,4.1-3.7,4.1
		c-4.4,0-4.5-4.5-4.5-6.9L285.4,45L285.4,45z M273.2,42.9c0-3,0.9-5.5,4-5.5s3.8,2.6,3.8,5.5H273.2z M259.9,37.7h1.5
		c0.8,0,1,0.2,1,0.5s-0.1,0.6-0.2,0.9l-3.7,10.7h-0.1l-3.5-10.1c-0.1-0.4-0.3-0.8-0.3-1.3c0-0.4,0.4-0.6,1.4-0.6h1.2V36h-9v1.8h0.4
		c0.8,0,1,0.2,1.5,1.4l5.6,14.5h4.2l5.6-14.6c0.4-0.9,0.7-1.2,1.4-1.2h0.5V36h-7.6v1.7H259.9z M239.8,29.8c0,1.5,0.9,2.7,2.6,2.7
		c1.7,0,2.6-1.2,2.6-2.7s-0.9-2.7-2.6-2.7C240.8,27.1,239.8,28.3,239.8,29.8 M237.4,37.8h1.3c1.4,0,1.6,0.3,1.6,2.7v8.8
		c0,1.7-0.2,2.3-2,2.3h-1.2v1.8h10.5v-1.8h-0.8c-1.8,0-2-0.6-2-2.3V35.5c-2.3,0.2-5.5,0.4-7.3,0.4L237.4,37.8L237.4,37.8z
		 M213.2,37.8h1.3c1.4,0,1.6,0.3,1.6,2.7v8.8c0,1.7-0.2,2.3-2,2.3h-1.2v1.8H223v-1.8h-0.5c-1.8,0-2-0.6-2-2.3v-5.9
		c0-3.4,1.8-5.3,4.4-5.3c1.9,0,3.2,1.2,3.2,3.7v7.4c0,1.7-0.2,2.3-2,2.3h-0.5v1.8h9.9v-1.8h-0.9c-1.8,0-2-0.6-2-2.3v-8.5
		c0-3.9-2.7-5.5-6.3-5.5c-2.9,0-5,1.2-6.2,4.1H220v-4c-1.8,0.2-5,0.4-6.8,0.4V37.8z M204.5,53.4h6.8v-1.8h-0.9c-1.8,0-2-0.6-2-2.3
		V35.5c-2.3,0.2-5.5,0.4-7.3,0.4v1.9h1.3c1.4,0,1.6,0.3,1.6,2.7v4.9c0,3.7-1.3,5.6-4.4,5.6c-2,0-3.2-1-3.2-3.2V35.5
		c-2.3,0.2-5.5,0.4-7.3,0.4v1.9h1.3c1.4,0,1.6,0.3,1.6,2.7V49c0,3.3,2.2,5,5.7,5c3.6,0,5.9-1.6,6.7-4h0.1L204.5,53.4L204.5,53.4z"/>
</g>
<polygon class="st0" points="164.5,35.7 100.6,114.5 105.7,114.6 169.6,35.7 "/>
<g>
	<path class="st0" d="M46.3,20.3c-0.5,0.1-1.1,0.3-1.5-0.6c-0.3-0.8,1-2,1.4-2.4c0.6-0.5-0.2-1.1-0.6-0.5c-0.1,0.2-1.1,1.6-1.9,1.6
		c-1.2,0-1.2-1.5-1.2-1.5s-1.4-0.9-1.4-3.7c0-2.5,1.6-3.7,1.6-3.7s0-1.4,1.1-1.4c1.1,0,1.8,1.6,1.9,1.7c0.6,0.8,1.3,0.1,0.8-0.5
		c-1.2-1.4-1.4-2.5-0.1-3.1c0.5-1.1,1.9-1.8,3.4-1.9h0.1l0,0c1.5,0.1,2.9,0.9,3.4,1.9c1.3,0.6,1,1.7-0.1,3.1
		c-0.5,0.6,0.2,1.3,0.8,0.5c0.1-0.1,0.8-1.6,1.9-1.7C57,8.1,57,9.5,57,9.5s1.6,1.2,1.6,3.7c0,2.8-1.4,3.7-1.4,3.7s0.1,1.5-1.2,1.5
		c-0.8,0-1.8-1.4-1.9-1.6c-0.4-0.6-1.1,0-0.6,0.5c0.4,0.4,1.7,1.6,1.4,2.4c-0.4,0.8-1,0.6-1.5,0.6c0,0-0.4,0.7-1.1,0.7
		c3.2,2.4,8.3,1,8.9-0.7c0,0-0.9,0.2-0.8-0.7c0-0.5,0.6-0.8,1.3-0.9c-0.2-0.3-0.2-0.8-0.2-1.2c0.1-1.3,0.9-2.3,1.9-2.4
		c1,0,1.8,0.9,1.7,2.2c0,0.6-0.3,1.2-0.6,1.6c0.7,0.3,1.2,0.6,1.2,1.1c-0.2,1.2-1.2,0.9-1.2,0.9c-0.1,2.6,3.9,3.2,4.9,2.5
		c-0.4-1.5,0.2-2,0.7-2.4c0.3-0.3,1.3-0.9,1.5-1c0.3-0.2,0.5-0.6,0.3-0.8c-0.2-0.1-0.6,0.1-0.8,0.3c-0.3,0.3-0.8,1-1.5,0.8
		c-0.9-0.2-0.5-1.3-0.7-1.8c-1-3.5-0.1-6,3.4-7.5c0,0,1.3-1.4,2.5-0.8c1.2,0.6,0.4,2.5,0.4,2.5l0.4,0.2c1.3-2.3,3.2-4,5.8-4.1
		c1.9,0,2.8,1.1,2.9,2.6c0.2,3.4-3.3,2.1-3,0.9c0,0-0.8,0.1-1.3,0.8c0-0.2,0-2.2-1.8-1.2c-0.5,0.3-1.4,1.8-1.5,2
		c-0.2,0.7,0.1,0.8-0.3,1.4c-0.3,0.5-0.7,0.6-0.8,1c-0.2,0.4,0.1,1.1-0.2,1.5c-0.3,0.6-0.7,0.6-0.9,1.1c-0.2,0.4-2.7,6.8-2.7,6.8
		s1,0.6,0.8,1.6c-0.3,1.3-1.1,1-1.5,1.8c-13.7-3.5-27.8-3.5-42.5-0.1c-0.4-0.8-1.2-0.5-1.5-1.8c-0.2-1,0.8-1.6,0.8-1.6
		s-2.5-6.4-2.7-6.8c-0.2-0.5-0.6-0.5-0.9-1.1c-0.2-0.5,0-1.2-0.2-1.5c-0.2-0.4-0.5-0.5-0.8-1c-0.4-0.7,0-0.8-0.3-1.4
		c-0.1-0.2-1-1.7-1.5-2c-1.8-1.1-1.8,1-1.8,1.2c-0.5-0.7-1.3-0.8-1.3-0.8c0.3,1.3-3.2,2.5-3-0.9c0.1-1.5,1-2.6,2.9-2.6
		c2.7,0.2,4.5,1.9,5.8,4.3l0.4-0.2c0,0-0.7-1.9,0.4-2.5c1.2-0.6,2.5,0.8,2.5,0.8c3.5,1.5,4.4,3.9,3.4,7.5c-0.2,0.6,0.2,1.6-0.7,1.8
		c-0.8,0.2-1.2-0.5-1.5-0.8c-0.2-0.2-0.6-0.5-0.8-0.3c-0.2,0.2,0,0.6,0.3,0.8c0.1,0.1,1.1,0.7,1.5,1c0.5,0.4,1.1,0.9,0.7,2.4
		c1,0.7,5.1,0.2,4.9-2.5c0,0-1.1,0.3-1.3-0.9c-0.1-0.4,0.4-0.8,1.2-1.1c-0.4-0.4-0.6-1-0.6-1.6c-0.1-1.3,0.7-2.2,1.7-2.2
		s1.9,1.1,1.9,2.4c0,0.4-0.1,0.9-0.2,1.2c0.7,0.1,1.3,0.4,1.3,0.9c0,0.9-0.8,0.7-0.8,0.7c0.7,1.8,5.7,3.1,8.9,0.7
		C46.7,21.1,46.3,20.3,46.3,20.3 M47.4,13.8c0,1.3,1.1,2.4,2.4,2.4c1.3,0,2.4-1.1,2.4-2.4s-1.1-2.4-2.4-2.4
		C48.5,11.4,47.4,12.5,47.4,13.8 M60.5,24c1,0,3,0.4,3,0.4s-0.8-0.9-1.2-1.6c0,0-0.5,0.4-0.7,0.6C61.3,23.6,60.5,24,60.5,24
		 M49.8,21.9c-0.4,0.4-1.2,1.2-2,1.5c0,0,1.4,0,2,0l0,0c0.6,0,2,0,2,0C51,23.1,50.2,22.4,49.8,21.9 M39.1,24c0,0-0.8-0.4-1-0.6
		c-0.3-0.2-0.7-0.6-0.7-0.6c-0.4,0.6-1.2,1.6-1.2,1.6S38.1,24,39.1,24 M70.4,30.4c0.7,0.2,1.6,0.8,1.3,1.8c-0.3,0.9-1.4,1-2,0.9
		c-0.7-0.2-1.6-0.8-1.3-1.8C68.6,30.3,69.8,30.2,70.4,30.4 M61.8,30.1l-2,1.7l-1.7-2l2-1.7L61.8,30.1z M30.1,33
		c-0.7,0.2-1.8,0.1-2-0.9c-0.3-0.9,0.7-1.6,1.3-1.8c0.7-0.2,1.8-0.1,2,0.9C31.7,32.2,30.8,32.9,30.1,33 M47.8,29.5
		c0-0.8,0.9-1.4,2.1-1.4c1.1,0,2.1,0.6,2.1,1.4s-0.9,1.4-2.1,1.4C48.8,30.9,47.8,30.3,47.8,29.5 M38,30.1l1.7-2l2,1.7l-1.7,2
		L38,30.1z M20.9,90.3c0.2-0.9,1.2-0.7,1.2-0.7s-0.2-0.8,0.7-1.2s1.4,0.6,1.4,0.6l0.4,2.7l-2.9-0.1C21.7,91.6,20.7,91.4,20.9,90.3
		 M25,85.9c0.2-0.9,1.2-0.7,1.2-0.7S26,84.4,26.8,84c0.9-0.4,1.4,0.6,1.4,0.6l0.4,2.7l-2.8-0.1C25.8,87.2,24.7,86.9,25,85.9
		 M29.1,81.5c0.2-0.9,1.2-0.7,1.2-0.7s-0.2-0.8,0.6-1.2c0.9-0.4,1.4,0.6,1.4,0.6l0.4,2.7l-2.9-0.2C29.8,82.7,28.8,82.5,29.1,81.5
		 M49.8,40.3c0.2-0.9,1.2-0.7,1.2-0.7s-0.2-0.8,0.6-1.2C52.5,38,53,39,53,39l0.4,2.7l-2.9-0.1C50.6,41.6,49.6,41.3,49.8,40.3
		 M53.8,55.5c0.2-0.9,1.2-0.7,1.2-0.7s-0.2-0.8,0.6-1.2c0.9-0.4,1.4,0.6,1.4,0.6l0.4,2.7l-2.9-0.1C54.5,56.8,53.5,56.5,53.8,55.5
		 M58.5,50.4c0.2-0.9,1.2-0.7,1.2-0.7s-0.2-0.8,0.6-1.2c0.9-0.4,1.4,0.6,1.4,0.6l0.4,2.7l-2.9-0.1C59.3,51.7,58.3,51.4,58.5,50.4
		 M63.3,45.4c0.2-0.9,1.2-0.7,1.2-0.7s-0.2-0.8,0.6-1.2c0.9-0.4,1.4,0.6,1.4,0.6l0.4,2.7L64,46.7C64.1,46.7,63,46.4,63.3,45.4
		 M68.1,40.4c0.2-0.9,1.2-0.7,1.2-0.7s-0.2-0.8,0.6-1.2c0.9-0.4,1.4,0.6,1.4,0.6l0.4,2.7l-2.9-0.2C68.8,41.6,67.8,41.4,68.1,40.4
		 M18.3,74.3c0.2-0.9,1.2-0.7,1.2-0.7s-0.2-0.8,0.6-1.2c0.9-0.5,1.4,0.6,1.4,0.6l0.4,2.7L19,75.6C19,75.5,18,75.3,18.3,74.3
		 M29.3,101.2c0.2-0.9,1.2-0.7,1.2-0.7s-0.2-0.8,0.6-1.2c0.9-0.4,1.4,0.6,1.4,0.6l0.4,2.7l-2.9-0.1C30.1,102.5,29,102.2,29.3,101.2
		 M34,96.1c0.2-0.9,1.2-0.7,1.2-0.7s-0.2-0.8,0.6-1.2c0.9-0.4,1.4,0.6,1.4,0.6l0.4,2.7l-2.8-0.1C34.8,97.4,33.8,97.1,34,96.1
		 M38.7,91c0.2-0.9,1.2-0.7,1.2-0.7s-0.2-0.8,0.6-1.2c0.9-0.4,1.4,0.6,1.4,0.6l0.4,2.7l-2.9-0.1C39.5,92.3,38.5,92,38.7,91
		 M43.4,85.9c0.2-0.9,1.2-0.7,1.2-0.7s-0.2-0.8,0.6-1.2c0.9-0.4,1.4,0.6,1.4,0.6l0.4,2.7l-2.9-0.1C44.2,87.2,43.2,86.9,43.4,85.9
		 M64.1,64.1c0.2-0.9,1.2-0.7,1.2-0.7s-0.2-0.8,0.6-1.2c0.9-0.4,1.4,0.6,1.4,0.6l0.4,2.7l-2.9-0.1C64.9,65.4,63.9,65.1,64.1,64.1
		 M68.4,59.5c0.2-0.9,1.2-0.7,1.2-0.7s-0.2-0.8,0.6-1.2c0.9-0.4,1.4,0.6,1.4,0.6l0.4,2.7l-2.9-0.1C69.1,60.8,68.1,60.5,68.4,59.5
		 M72.6,54.9c0.2-0.9,1.2-0.7,1.2-0.7s-0.2-0.8,0.6-1.2c0.9-0.4,1.4,0.6,1.4,0.6l0.4,2.7l-2.9-0.1C73.4,56.2,72.4,55.9,72.6,54.9
		 M76.9,50.2c0.2-0.9,1.2-0.7,1.2-0.7s-0.2-0.8,0.6-1.2c0.9-0.4,1.4,0.6,1.4,0.6l0.4,2.7l-2.9-0.1C77.6,51.5,76.6,51.3,76.9,50.2
		 M43.9,105.8c0.2-0.9,1.2-0.7,1.2-0.7s-0.2-0.8,0.6-1.2c0.9-0.4,1.4,0.6,1.4,0.6l0.4,2.7l-2.9-0.1C44.7,107,43.7,106.8,43.9,105.8
		 M76.9,69.3c0.2-0.9,1.2-0.7,1.2-0.7s-0.2-0.8,0.6-1.2c0.9-0.4,1.4,0.6,1.4,0.6l0.4,2.7l-2.9-0.1C77.6,70.6,76.6,70.3,76.9,69.3
		 M45,73c0-0.1,0.2-0.1,0.7-0.2c0.4-0.1,0.8-0.2,0.8-0.1c0,0.2-0.3,0-0.3,0.4v3.3c0,0.2,0.2,0,0.2,0.2s-0.4,0.1-0.7,0.1
		S45,76.8,45,76.6s0.3,0,0.3-0.2v-3.2C45.3,72.9,45,73.2,45,73 M41.4,74.4c0-0.1,0.1-0.1,0.3-0.2c0.2-0.1,0.3-0.2,0.5-0.1
		c0.2,0.2,1.2,1.4,1.2,1.4v-1.7c0-0.2-0.3,0.1-0.3-0.1c0-0.1,0.1-0.1,0.4-0.2c0.2-0.1,0.6-0.4,0.6-0.2c0,0.2-0.2,0.1-0.2,0.4V77
		c0,0.3,0,0.3-0.1,0.3c-0.1,0-1.7-2.1-1.7-2.1v2.2c0,0.2,0.4-0.1,0.4,0.1c0,0.1-0.2,0.2-0.5,0.3c-0.2,0.1-0.6,0.3-0.6,0.1
		c0-0.2,0.3-0.1,0.3-0.3v-2.9C41.6,74.4,41.4,74.6,41.4,74.4 M40.1,76.4c0-1.4-0.9-0.9-0.9-0.9v2.8C39.2,78.4,40.1,78.4,40.1,76.4
		 M38,75.9c0-0.1,0.4-0.3,0.7-0.4c0.5-0.2,2.2-1.1,2.2,1c0,1.9-1.3,2.2-1.7,2.4c-0.4,0.2-1,0.5-1,0.4c-0.1-0.1,0.2-0.2,0.2-0.5v-2.3
		C38.4,75.8,38,76.1,38,75.9 M43.8,67.4c0-0.1,0.3-0.1,0.5-0.2c0.3-0.1,0.5-0.1,0.6,0c0.1,0.1,0.7,1.1,0.7,1.1s0.8-1.1,0.8-1.2
		c0.1-0.1,0.1-0.2,0.4-0.2c0.4,0,0.5,0,0.5,0c0,0.1-0.2,0.1-0.2,0.4c0,0.2,0,2.9,0,3c0,0.3,0.2,0.2,0.2,0.3c0,0.1-0.2,0.1-0.7,0.1
		c-0.4,0-0.7,0.1-0.7,0c0-0.2,0.2,0,0.2-0.3v-2l-0.8,1.1l-1-1.4v2.4c0,0.4,0.4,0.2,0.4,0.3c0,0.1-0.3,0.1-0.5,0.2s-0.5,0.2-0.5,0.1
		C43.6,70.9,44,71,44,70.6s0-2.6,0-2.8C44.1,67.4,43.8,67.6,43.8,67.4 M42.7,67.9c0.1-0.1,0.5-0.2,0.5-0.2c0.1,0.1-0.1,0.1-0.3,0.7
		c-0.1,0.2-0.7,3.6-0.9,3.7c-0.1,0-1.2-2.7-1.3-2.9c-0.2-0.4-0.4-0.1-0.4-0.3c0-0.1,0.3-0.2,0.5-0.3c0.1-0.1,0.6-0.4,0.7-0.3
		c0.1,0.1-0.3,0.1-0.1,0.5c0.1,0.3,0.7,1.6,0.7,1.6s0.4-1.5,0.5-2c0.1-0.5-0.3-0.3-0.3-0.4C42.3,68,42.5,67.9,42.7,67.9L42.7,67.9z
		 M38.5,71.4v1.8c0,0,1-0.2,1-1.4C39.5,70.9,38.5,71.4,38.5,71.4 M38.5,69.8V71c0,0,0.7-0.3,0.7-0.9C39.2,69.4,38.5,69.8,38.5,69.8
		 M38.6,69.5c0.4-0.2,1.5-0.4,1.5,0.5c0,0.7-0.4,0.8-0.4,0.8s0.8,0.1,0.8,0.8c0,0.7-0.4,1.2-0.8,1.5c-0.2,0.1-1.5,0.7-1.6,0.8
		c-0.1,0.1-0.4,0.2-0.4,0.2c-0.1-0.2,0.2-0.1,0.2-0.6v-3c0-0.6-0.3-0.4-0.3-0.5C37.5,69.8,38.2,69.6,38.6,69.5 M45.2,61.1v1.5
		c0,0,0.7,0,0.7-0.9C45.9,60.8,45.2,61.1,45.2,61.1 M47.1,64.5c0.2,0,0.3-0.1,0.3-0.1s-0.1,0.5-0.6,0.5c-0.8,0-0.7-1.3-1-1.7
		c-0.2-0.4-0.6-0.2-0.6-0.2v1.3c0,0.4,0.3,0.2,0.3,0.4c0,0.1-0.2,0.1-0.2,0.1S44.7,65,44.5,65s-0.3,0.1-0.3,0c0-0.2,0.2-0.1,0.2-0.5
		v-2.8c0-0.5-0.3-0.4-0.3-0.5s0.2-0.1,0.4-0.2c0.4-0.1,0.5-0.2,1-0.3s1.4,0.1,1.4,0.8c0,0.8-0.4,0.9-0.7,1.1
		C47.1,63.2,46.7,64.4,47.1,64.5 M41.3,62.5c0.4-0.1,1-0.4,1.7-0.8c0.1-0.1,0.4-0.2,0.5,0c0.1,0.3,0.2,0.6,0.2,0.6
		c-0.1,0.1-0.2,0-0.4-0.1c-0.1-0.1-0.3-0.2-0.5-0.1c-0.2,0-0.4,0.1-0.4,0.1v1.2c0,0,0.4,0,0.5-0.2c0-0.2,0.1-0.4,0.2-0.5
		c0.1,0,0.1,0.2,0.1,0.6c0,0.1,0,0.2,0,0.2c0,0.4,0,0.6-0.1,0.6c-0.1,0-0.2-0.3-0.2-0.4c0-0.1-0.5,0-0.5,0.1v1.7
		c0,0,0.3-0.2,0.5-0.3c0.2-0.1,0.5-0.5,0.6-0.7c0.1-0.2,0.2-0.4,0.3-0.4c0.1,0-0.1,0.7-0.1,0.7s0,0.3-0.2,0.4s-1.6,0.7-1.7,0.8
		c-0.2,0.1-0.5,0.3-0.5,0.2c0-0.2,0.2-0.1,0.2-0.6v-2.8C41.5,62.8,41.5,62.6,41.3,62.5C41.1,62.7,41,62.6,41.3,62.5 M38.2,63.8
		c0.2-0.1,0.7-0.3,0.8-0.2c0.1,0.2-0.3,0.1-0.2,0.5c0.1,0.3,0.7,1.8,0.7,1.8l0.5-2.1c0.1-0.5-0.3-0.3-0.3-0.4c0-0.1,0.3-0.2,0.4-0.2
		c0.1-0.1,0.6-0.3,0.6-0.2c0.1,0.2-0.2,0.2-0.3,0.6c-0.1,0.5-1,3.8-1.2,4c-0.1,0.1-1.3-2.8-1.4-3c-0.1-0.2-0.4-0.1-0.4-0.3
		C37.5,64,38,63.9,38.2,63.8 M53.2,73.1c0-0.1,0.1-0.1,0.3,0s0.4,0.1,0.6,0.4c0.2,0.3,1.4,2.4,1.4,2.4V74c0-0.3-0.2-0.3-0.2-0.4
		s0.2,0,0.4,0.1s0.4,0.1,0.4,0.2s-0.2,0-0.2,0.2v3.6c0,0,0,0.2-0.1,0c-0.1-0.1-2-3.1-2-3.1s0,1.9,0,2.1S54,76.9,54,77
		c0,0.1-0.3,0.1-0.4,0c-0.2,0-0.4,0-0.4-0.2c0-0.1,0.2,0.1,0.2-0.3v-3.1C53.5,73.2,53.2,73.2,53.2,73.1 M55,67.5
		c0-0.1,0.6,0.1,1.1,0.2s1.4,0.3,1.4,0.6c0,0.4,0.1,0.7,0,0.7s-0.2-0.4-0.4-0.6s-0.7-0.3-0.8-0.3s-0.1,0-0.1,0.1v1.1
		c0,0,0.3,0.1,0.5,0.1c0.1-0.1,0.1-0.4,0.2-0.4s0.1,0.2,0,0.6c0,0.4,0,0.7-0.1,0.7s-0.1-0.4-0.3-0.6s-0.4-0.2-0.4-0.2v1.8
		c0,0,0.2,0.2,0.7,0.1c0.5-0.2,0.8-0.5,0.9-0.4c0.1,0.1,0,0.2-0.2,0.5c-0.2,0.4-0.3,0.6-0.6,0.5c-0.2-0.1-0.7-0.3-1.1-0.4
		c-0.3-0.1-1-0.3-1-0.4s0.3,0.1,0.3-0.3v-3.2C55.3,67.6,55,67.6,55,67.5 M54.2,66.9c0.2,0,0.1,0.6,0.2,0.8c0,0.4,0.2,0.7,0,0.7
		s-0.4-0.6-0.7-0.9s-1.3-0.8-1.3,1.3c0,1.8,0.8,1.8,1.2,1.6c0.4-0.1,0.6-0.5,0.6-0.4c0.1,0-0.4,0.9-1.2,1c-0.9,0.1-1.7-0.8-1.7-2.1
		c0-1.4,0.7-2.2,1.5-2.2c0.7,0,0.9,0.5,1.2,0.5C54.2,67.3,54,66.9,54.2,66.9 M56.5,62.1c0-0.2,0.3,0,0.8,0.2s0.9,0.3,0.8,0.4
		c0,0.1-0.4-0.1-0.3,0.2c0,0.2,0.6,2.1,0.6,2.1s0.6-1.5,0.7-1.6c0-0.2-0.2-0.2-0.2-0.3s0.2,0,0.4,0.1s0.4,0.2,0.4,0.3
		s-0.2-0.1-0.3,0c-0.1,0.2-1.4,3.1-1.4,3.1l-1.3-4.2C56.6,62.2,56.5,62.2,56.5,62.1 M53.5,61c0-0.1,0.2,0,0.2,0l1.2,0.4
		c0,0,0.2,0.1,0.2,0.2c0,0.1-0.4-0.1-0.4,0.2V65c0,0,0.1,0.2,0.5,0.1c0.4-0.2,1-0.5,1-0.5s0.3-0.1,0.2,0.1s-0.3,0.8-0.3,0.8
		s-0.1,0.2-0.4,0.2c-0.3-0.1-1.1-0.3-1.3-0.3c-0.2-0.1-0.8-0.2-0.8-0.2s-0.1,0-0.1-0.1s0.4,0,0.4-0.3v-3.2
		C53.8,61.1,53.5,61.1,53.5,61 M58,72.5c0-0.2,0.3,0.1,0.3-0.3v-3.1c0-0.4-0.2-0.4-0.2-0.5c0-0.2,0.3,0.1,0.4,0.1
		c0.1,0,1,0.5,1.1,0.5s1.1,0.4,1.1,1.5c0,0.7-0.6,0.6-0.6,0.6s0.6,0.4,0.6,0.9s0.1,1,0.1,1.1s0.1,0.4,0.4,0.1c0,0,0,0.6-0.7,0.4
		c-0.5-0.2-0.6-0.6-0.6-0.9s-0.2-1.7-0.8-1.7v1.4c0,0.4,0.2,0.3,0.2,0.5c0,0.1-0.3-0.1-0.6-0.2C58.3,72.7,58,72.6,58,72.5
		 M59.1,69.3v1.5c0.1,0,0.8,0.5,0.8-0.4C59.9,69.4,59.1,69.3,59.1,69.3 M57.5,74.8c0.1-0.2-0.1-0.3-0.1-0.4s0.3,0.1,0.5,0.2
		s0.5,0.2,0.5,0.4c0.1,0.2,1,3.4,1.1,3.7c0.1,0.3,0.3,0.2,0.2,0.4c0,0.1-0.3-0.1-0.8-0.3c-0.5-0.2-0.7-0.2-0.7-0.3
		c0-0.1,0.5,0.1,0.3-0.2c-0.1-0.2-0.2-0.8-0.2-0.8L57,77.1l-0.2,0.6C56.7,78,57,78,56.9,78.1c0,0.1-0.2,0-0.4-0.1s-0.3-0.1-0.3-0.2
		s0.2,0,0.3-0.2C56.7,77.4,57.5,75,57.5,74.8 M57.7,75.2l-0.4,1.4l1,0.3L57.7,75.2z M82.9,35.8v41.7c0.5,24.9-19.9,33.8-33.4,33.8
		s-33.8-8.8-33.4-33.8V35.8h12.4c-0.1-0.8,0.1-1.3,0.2-1.3c17-3.4,25.2-3.6,42.2,0c0.4,0.4,0.4,0.9,0.4,1.3H82.9z M22.3,96.3
		l13-13.9v-4.1h-1.5c0,0-1-0.3-0.8-1.3c0.2-0.9,1.2-0.7,1.2-0.7s-0.2-0.8,0.6-1.2C35,75,35.1,75,35.2,75v-2.7L19.1,89.6
		C19.9,92.1,21,94.3,22.3,96.3 M38.5,60.8c0.2-0.1,0.4-0.2,0.5-0.3c0.6-0.3,1.8-0.9,3-1.4s2.6-1,3.8-1c1.1,0,2.1,0.3,2.7,0.7
		c0.3,0.2,0.6,0.3,0.7,0.5l0.1,0.1c0,0,0-0.1,0.1-0.1c0.1-0.2,0.3-0.3,0.6-0.5c0.6-0.4,1.4-0.6,2.7-0.6c1.4,0,2.9,0.5,4.1,1.1
		l0.3,0.1L78,37h-9.5L50,56.7v-9.5L59.6,37H17.3v40.5c0,1.5,0,3,0.1,4.4l9.1-9.7h8.8v-7.7c-0.2,0.2-0.4,0.2-0.4,0.2s0.2-0.7-0.4-0.8
		c0,0-0.1,0-0.2,0c-0.3,0-0.5,0.2-0.7,0.3c-0.3,0.3-1.3,1.4-1.5,1.6c-0.2-0.2-1.1-1.3-1.5-1.6c-0.2-0.2-0.4-0.3-0.7-0.3
		c-0.1,0-0.1,0-0.2,0c-0.6,0.1-0.4,0.8-0.4,0.8s-0.6,0.1-0.6-0.7c0-0.6,0.5-0.9,0.9-1.1c0.6-0.1,1.3-0.2,1.4-1.2c0-0.2,0-0.3,0-0.3
		s-0.2,0.3-0.8,0.6c-0.7,0.3-2.4,0.3-2.4,1.3c0,0.4,0.4,0.4,0.4,0.4s0,0.2-0.3,0.2c-0.1,0-0.1,0-0.2,0c-0.4-0.1-0.5-0.5-0.5-1
		c0-0.3-0.2-0.8-0.6-0.7c-0.1,0-0.2,0-0.3,0.1c-0.3,0.2-0.2,0.5-0.2,0.5s-0.4-0.2-0.3-0.7c0.1-0.4,0.3-0.6,0.7-0.7h0.1
		c0.5-0.1,0.8,0.1,0.8,0.1s-0.1-0.3-0.1-0.7c0-0.3,0.2-0.6,0.6-0.7c0.7-0.1,0.8,0.3,0.7,0.6c0,0-0.2-0.2-0.3-0.1h-0.1
		c-0.1,0.1-0.2,0.1-0.2,0.2c-0.1,0.3,0.1,0.6,0.1,0.7c0.1,0.2,0.5,0.3,1.1,0.2s1-0.5,1.2-0.9c0.1-0.2,0.2-0.3,0.1-0.5l0.3-3.6
		c0,0,0.1-0.9-0.5-1c-0.1,0-0.1,0-0.2,0c-0.5,0.1-1.1,0.8-0.9,1.7c0.1,0.7-0.2,1.2-0.5,1.3c-0.4,0.1-0.7,0-0.8-0.3
		c0.7,0,0.7-0.6,0.5-0.9c-0.1-0.1-0.2-0.1-0.4-0.1c-0.7,0.1-1.8,1.1-2,1.6c-0.2,0.5,0.2,0.4,0.4,0.8c0.1,0.3-0.2,0.6-0.2,0.6
		c0,0.1,0,0.2,0,0.3c-0.1,0.3-0.2,0.4-0.4,0.4c-0.1,0-0.2,0-0.3,0c0.2-0.1,0.2-0.3,0.3-0.4c0-0.1,0-0.2,0-0.2s-0.2,0-0.4-0.3
		c-0.2-0.3,0-0.4-0.2-0.8c-0.2-0.4-0.9-0.7-1.4-0.8h-0.1c-0.1,0-0.2,0.1-0.3,0.1h-0.1c-0.4,0-0.3-0.2-0.6-0.2
		c-0.2,0-0.3,0.2-0.2,0.4V59c-0.2-0.1-0.3-0.3-0.3-0.5c0-0.5,0.3-0.9,0.6-0.9c0.4,0,0.5,0.2,0.6,0.2c0.2-0.9-0.5-0.6-0.8-1
		c-0.2-0.3-0.1-0.4-0.1-0.5c0-0.2-0.2-0.2-0.4-0.1c-0.1,0-0.1,0-0.2,0c0,0,0.1-0.4,0.5-0.5c0.1,0,0.3,0,0.6,0.1
		c0.2-0.1,0.4,0,0.5,0.2s0,0.4,0,0.6c0.1,0.6,0.4,0.6,0.5,0.5c-0.3-0.8,0.1-1.1,0.1-1.2c0-0.1,0-0.3-0.2-0.4c0,0-0.1,0,0-0.1
		c0,0,0.8,0,0.9,0.5c0,0,0.3,0.2,0.3,0.6c0,0.5-0.3,0.6-0.4,0.7c0.1,0.6,0.4,0.6,0.7,0.6c0.3,0,0.6-0.2,0.6-0.2
		c0.5-0.2,1.6-0.9,1.3-1.4c-0.1-0.2-0.3-0.4-0.6-0.3c-0.1,0-0.2,0.1-0.3,0.1c-0.3,0.3-0.2,0.7-0.2,0.7c-0.5,0.1-0.7-0.7-0.4-1
		c0.2-0.2,0.5-0.3,0.7-0.4c0.3-0.1,0.6,0,1-0.1s0.7-0.3,0.9-0.8c0.2-0.3,0.2-0.8,0-1.2c-0.2-0.4-0.6-0.9-1.1-1
		c-0.1,0.9-0.6,1.6-1.2,2c-0.1,0.1-0.3,0.2-0.5,0.2c-0.1,0-0.2,0-0.1,0c0.8-0.9,0.6-1.9,0.6-2c-0.1,0.1-0.7,1.2-1.7,1.7
		c-0.1,0-0.2,0.1-0.3,0.1c-0.6,0.1-1.2-0.2-0.9-0.2c0.4-0.1,1.9-1,1.5-2.9c-0.1,0.1-0.7,1.3-1.6,1.9c-0.4,0.2-0.7,0.4-1.1,0.4
		c-0.7,0.1-1.2-0.1-1.1-0.2c0,0,1.8-0.9,1.9-1.7c-0.1,0-0.6,0.4-1.1,0.5c-0.1,0-0.2,0-0.2,0c-1.7,0.2-1.7-0.9-1.7-0.9
		c0.1,0,1.6,0.1,2.8-2.4c0,0-0.8,0.3-1.7,0.4c-0.5,0.1-0.8-0.3-0.7-0.3s0.2,0,0.3,0c0.3,0,0.7-0.2,1.2-0.6c-0.1-0.1-2.1-0.9-1.3-2.2
		c0,0,0.5,0.5,1.2,0.5c0.5,0,1.3,0,1.5-0.5c0,0-1-0.1-2-0.7c-0.6-0.4-0.8-1.3-0.6-1s0.5,0.3,0.8,0.4c0.3,0.1,0.5,0,0.5,0
		s-1.5-1.4-0.5-2.5c0,0,0.5,1.4,1.7,1.4c0,0-0.6-0.6-0.7-1.3c-0.1-0.5-0.1-1.1,0-0.9c0.1,0.1,0.2,0.4,0.3,0.5
		c0.2,0.3,0.5,0.6,0.7,0.9c0,0-0.2-0.7,0.1-1.4c0-0.1,0.4-0.7,0.4-0.5c0,0,0,0.4,0,0.6c0.1,0.5,0.3,1.1,1.1,2
		c1.1,1.2,2.4,1.1,2.4,1.9c0,0.9-1.1,0.7-1.8,0.7c-0.2,0-0.2,0.4,0,0.6c0.6,0.8,3,1,3.8-0.3c0.3-0.4,0.3-1,0.2-1.5
		c-0.2-0.7-0.8-0.7-1.8-0.9c-0.7-0.2-0.5-0.5-0.4-0.5c0,0,0.2,0.1,0.4,0.1c0.5,0,0.2-0.7,0.2-0.7c-0.1,0-0.7,0.2-1.2,0.3
		c-0.6,0.1-1.4-0.2-1.4-0.6c0-0.5,0.6-0.7,0.6-0.5c0,0-0.4,0.7,0.8,0.7c0.4,0,1.1-0.1,1.1-0.1c0-0.2-0.4-0.5-0.6-0.5s-0.4,0.1-0.7,0
		c-0.1-0.3,0.2-0.6,0.4-0.7c0.2-0.1,0.4-0.1,0.5-0.1s0.2-0.5,1-0.5c0.4,0,1,0.3,1.3,0.3c0.3,0,0.7-0.2,0.8-0.1
		c0,0.1-0.2,0.4-0.1,0.6c0,0.6,0.9,2.8,2,3c1-0.2,2-2.4,2-3c0-0.2-0.2-0.5-0.1-0.6c0-0.1,0.5,0.1,0.8,0.1s0.8-0.3,1.3-0.3
		c0.8,0,0.8,0.4,1,0.5c0.1,0,0.3,0,0.5,0.1s0.6,0.4,0.4,0.7c-0.3,0-0.5,0-0.7,0c-0.3,0-0.6,0.3-0.6,0.5c0,0,0.7,0.1,1.1,0.1
		c1.1,0,0.8-0.7,0.8-0.7c0-0.1,0.6,0,0.6,0.5c0,0.4-0.7,0.7-1.4,0.6c-0.5,0-1.1-0.3-1.2-0.3c-0.1,0-0.4,0.7,0.1,0.7
		c0.2,0,0.4-0.1,0.4-0.1c0.1,0,0.3,0.3-0.4,0.5c-1,0.2-1.5,0.2-1.8,0.9c-0.2,0.5-0.1,1,0.2,1.5c0.8,1.3,3.2,1.1,3.8,0.3
		c0.2-0.3,0.2-0.6,0-0.6c-0.7,0.1-1.7,0.2-1.8-0.7c0-0.7,1.2-0.7,2.4-1.9c0.9-0.9,1.1-1.5,1.1-2c0-0.1,0-0.6,0-0.6
		c0-0.1,0.4,0.4,0.4,0.5c0.3,0.7,0.1,1.4,0.1,1.4c0.3-0.2,0.6-0.6,0.7-0.9c0.1-0.2,0.2-0.4,0.3-0.5c0.1-0.2,0.1,0.5,0,0.9
		c-0.1,0.7-0.7,1.3-0.7,1.3c1.2,0,1.7-1.4,1.7-1.4c0.9,1.1-0.5,2.5-0.5,2.5s0.2,0.1,0.5,0s0.6-0.2,0.8-0.4c0.2-0.3,0,0.6-0.6,1
		c-1,0.6-2,0.7-2,0.7c0.2,0.5,1,0.6,1.5,0.5c0.7-0.1,1.2-0.5,1.2-0.5c0.7,1.3-1.2,2.2-1.3,2.2c0.5,0.4,1,0.6,1.2,0.6
		c0.1,0,0.2,0,0.3,0c0.1,0-0.2,0.3-0.7,0.3c-1.2-0.1-2-0.4-2-0.4c1.2,2.5,2.6,2.4,2.8,2.4c0,0,0,1.1-1.6,1.1c-0.1,0-0.2,0-0.2,0
		c-0.6-0.1-1.1-0.5-1.1-0.5c0,0.8,1.9,1.7,1.9,1.7c0.1,0.1-0.4,0.3-1.1,0.2c-0.3-0.1-0.7-0.2-1.1-0.4c-0.8-0.6-1.5-1.8-1.6-1.9
		c-0.5,1.9,1.1,2.8,1.5,2.9c0.2,0-0.4,0.3-0.9,0.2c-0.1,0-0.2,0-0.3-0.1c-1.1-0.5-1.7-1.6-1.7-1.7c0,0.1-0.2,1,0.6,2c0,0,0,0-0.1,0
		c-0.1,0-0.3-0.1-0.5-0.2c-0.6-0.4-1.1-1.1-1.2-2c-0.5,0.1-0.9,0.6-1.1,1s-0.2,0.8,0,1.2c0.3,0.5,0.6,0.7,0.9,0.8s0.6,0.1,1,0.1
		c0.3,0,0.5,0.1,0.7,0.4c0.3,0.3,0.1,1.2-0.4,1c0,0,0.2-0.4-0.2-0.7c-0.1-0.1-0.2-0.1-0.3-0.1c-0.2,0-0.5,0.1-0.6,0.3
		c-0.3,0.5,0.8,1.2,1.3,1.4c0,0,0.3,0.2,0.6,0.2c0.3,0,0.6,0,0.7-0.6c-0.1-0.1-0.4-0.2-0.4-0.7c0-0.4,0.3-0.6,0.3-0.6
		c0.1-0.5,0.9-0.5,0.9-0.5c0.1,0,0,0.1,0,0.1c-0.2,0.1-0.3,0.2-0.2,0.4c0,0.1,0.4,0.4,0.1,1.2c0.1,0,0.4,0,0.5-0.5
		c0-0.2-0.1-0.4,0-0.6c0.1-0.1,0.3-0.3,0.5-0.2c0.2-0.1,0.4-0.1,0.6-0.1c0.4,0.1,0.5,0.5,0.5,0.5l0,0h-0.1c-0.2,0-0.5,0-0.4,0.1
		c0,0.1,0.1,0.2-0.1,0.5c-0.3,0.4-1,0.1-0.8,1c0,0,0.2-0.3,0.6-0.2c0.3,0,0.6,0.4,0.6,0.9c0,0.2-0.1,0.4-0.3,0.5c0,0,0,0,0-0.1
		c0.1-0.2,0-0.4-0.2-0.4c-0.3,0-0.2,0.2-0.6,0.2c-0.1,0-0.1,0-0.1,0c-0.2,0-0.2-0.1-0.3-0.1h-0.1c-0.5,0.1-1.2,0.4-1.4,0.8
		c-0.2,0.4,0,0.5-0.2,0.8s-0.4,0.3-0.4,0.3s0,0.1,0,0.2C38.5,60.7,38.5,60.8,38.5,60.8 M37.2,61.3c0.3-0.1,0.7-0.2,1-0.4
		c0-0.1-0.1-0.1-0.1-0.3c0-0.1,0-0.2,0-0.3c0,0-0.3-0.3-0.2-0.6c0.2-0.4,0.5-0.3,0.4-0.8c-0.2-0.6-1.3-1.5-2-1.6
		c-0.2,0-0.3,0-0.4,0.1c-0.2,0.2-0.3,0.8,0.5,0.9c-0.2,0.3-0.4,0.4-0.8,0.3c-0.3-0.1-0.7-0.6-0.6-1.3c0.2-0.9-0.4-1.6-0.9-1.7
		c-0.1,0-0.1,0-0.2,0c-0.6,0.1-0.5,1-0.5,1l0.3,3.6c0,0.1,0,0.3,0.1,0.5c0.2,0.3,0.6,0.7,1.2,0.9c0.5,0.1,0.9,0,1.1-0.2
		c0-0.1,0.3-0.4,0.1-0.7c0-0.1-0.1-0.2-0.2-0.2h-0.1c-0.2,0-0.3,0.1-0.3,0.1c-0.1-0.2,0-0.7,0.7-0.6c0.4,0.1,0.6,0.4,0.6,0.7
		s-0.1,0.7-0.1,0.7S37,61.3,37.2,61.3 M35.4,62.6c0-0.1,0-0.2,0-0.3c-0.5-0.1-1-0.2-1.3-0.4c-0.6-0.3-0.8-0.6-0.8-0.6s0,0,0,0.3
		c0.1,1,0.7,1.1,1.4,1.2c0.3,0.1,0.6,0.3,0.8,0.5v-0.7H35.4z M57.9,82.8c-0.1,0.2-0.1,0.6,0,0.8c0.5,0.7,2.6,0.9,3.5,0
		C60.3,83.4,59.1,83.1,57.9,82.8 M63.7,80.9c0.3,0.4,0.7,0.7,1,0.8c1-0.2,2-2.4,2-3c0-0.2-0.2-0.5-0.1-0.6c0-0.1,0.5,0.1,0.8,0.1
		c0.3,0,0.9-0.3,1.3-0.3c0.8,0,0.8,0.4,1,0.5c0.1,0,0.3,0,0.5,0.1c0.2,0.1,0.6,0.4,0.4,0.7c-0.4,0-0.5,0-0.7,0
		c-0.3,0-0.6,0.3-0.6,0.5c0,0,0.7,0.1,1.1,0.1c1.1,0,0.8-0.7,0.8-0.7c0-0.1,0.6,0,0.6,0.5c0,0.4-0.7,0.7-1.4,0.6
		c-0.5,0-1.1-0.3-1.2-0.3s-0.4,0.7,0.1,0.7c0.2,0,0.4-0.1,0.4-0.1c0.1,0,0.3,0.3-0.4,0.5c-1,0.2-1.5,0.2-1.8,0.9
		c-0.2,0.5-0.1,1,0.2,1.5c0.8,1.3,3.2,1.1,3.8,0.3c0.2-0.3,0.2-0.6,0-0.6c-0.7,0.1-1.7,0.2-1.8-0.7c0-0.7,1.2-0.7,2.4-1.9
		c0.9-0.9,1.1-1.5,1.1-2c0-0.1,0-0.6,0-0.6c0-0.1,0.4,0.4,0.4,0.5c0.3,0.7,0.1,1.4,0.1,1.4c0.3-0.2,0.6-0.6,0.7-0.9
		c0.1-0.2,0.2-0.4,0.3-0.5c0.1-0.2,0.1,0.5,0,0.9C74.6,80,74,80.6,74,80.6c1.2,0,1.7-1.4,1.7-1.4c0.9,1.1-0.5,2.5-0.5,2.5
		s0.2,0.1,0.5,0c0.3-0.1,0.6-0.2,0.8-0.4c0.2-0.3,0,0.6-0.6,1c-1,0.6-2,0.7-2,0.7c0.2,0.5,1,0.6,1.5,0.5c0.7-0.1,1.2-0.5,1.2-0.5
		c0.7,1.3-1.2,2.2-1.3,2.2c0.5,0.4,1,0.6,1.2,0.6c0.1,0,0.2,0,0.3,0s-0.2,0.3-0.7,0.3c-0.9-0.1-1.7-0.4-1.7-0.4
		c1.2,2.5,2.6,2.4,2.8,2.4c0,0,0,1.1-1.6,1.1c-0.1,0-0.2,0-0.2,0c-0.6-0.1-1.1-0.5-1.1-0.5c0,0.8,1.9,1.7,1.9,1.7
		c0.1,0.1-0.4,0.3-1.1,0.2c-0.3-0.1-0.7-0.2-1.1-0.4c-0.8-0.6-1.5-1.8-1.6-1.9c-0.5,1.9,1.1,2.8,1.5,2.9c0.2,0-0.4,0.3-0.9,0.2
		c-0.1,0-0.2,0-0.3-0.1c-1.1-0.5-1.7-1.6-1.7-1.7c0,0.1-0.2,1,0.6,2c0,0,0,0-0.1,0s-0.3-0.1-0.5-0.2c-0.6-0.4-1.1-1.1-1.2-2
		c-0.5,0.1-0.9,0.6-1.1,1c-0.2,0.4-0.2,0.8,0,1.2c0.3,0.5,0.6,0.7,0.9,0.8c0.3,0.1,0.6,0,1,0.1c0.3,0,0.5,0.1,0.7,0.4
		c0.3,0.3,0.1,1.2-0.4,1c0,0,0.2-0.4-0.2-0.7c-0.1-0.1-0.2-0.1-0.3-0.2c-0.2,0-0.5,0.1-0.6,0.3c-0.3,0.5,0.8,1.2,1.3,1.4
		c0,0,0.3,0.2,0.6,0.2c0.3,0,0.6,0,0.7-0.6c-0.1-0.1-0.4-0.2-0.4-0.7c0-0.4,0.3-0.6,0.3-0.6c0.1-0.5,0.9-0.5,0.9-0.5
		c0.1,0,0,0.1,0,0.1c-0.4,0.1-0.5,0.3-0.4,0.4c0,0.1,0.4,0.4,0.1,1.2c0.1,0,0.4,0,0.5-0.5c0-0.2-0.1-0.4,0-0.6s0.3-0.3,0.5-0.2
		c0.2-0.1,0.4-0.1,0.6-0.1c0.4,0.1,0.5,0.5,0.5,0.5s0,0.1,0,0h-0.1c-0.2,0-0.5,0-0.4,0.1c0,0.1,0.1,0.2-0.1,0.5
		c-0.3,0.4-1,0.1-0.8,1c0,0,0.2-0.3,0.6-0.2c0.3,0,0.6,0.4,0.6,0.9c0,0.2-0.1,0.4-0.3,0.5c0,0,0,0,0-0.1c0.1-0.2,0-0.4-0.2-0.4
		c-0.3,0-0.2,0.2-0.6,0.2c-0.1,0-0.1,0-0.1,0c-0.1,0-0.2-0.1-0.3-0.1h-0.1c-0.5,0.1-1.2,0.4-1.4,0.8c-0.2,0.4,0,0.5-0.2,0.8
		c-0.2,0.3-0.4,0.3-0.4,0.3s0,0.1,0,0.2s0.1,0.3,0.3,0.4c0,0,0.1,0,0,0s-0.2,0.1-0.3,0c-0.1,0-0.3-0.1-0.4-0.4c0-0.1,0-0.2,0-0.3
		c0,0-0.3-0.3-0.2-0.6c0.2-0.4,0.5-0.3,0.4-0.8c-0.2-0.6-1.3-1.5-2-1.6c-0.2,0-0.3,0-0.4,0.1c-0.2,0.2-0.3,0.8,0.5,0.9
		c-0.1,0.3-0.4,0.4-0.8,0.3c-0.3-0.1-0.7-0.6-0.6-1.3c0.2-0.9-0.4-1.6-0.9-1.7c-0.1,0-0.2,0-0.2,0c-0.6,0.1-0.5,1-0.5,1l0.3,3.6
		c0,0.1,0,0.3,0.1,0.5c0.2,0.3,0.6,0.7,1.2,0.9c0.5,0.1,0.9,0,1.1-0.2c0-0.1,0.3-0.4,0.1-0.7c0-0.1-0.1-0.2-0.2-0.2h-0.1
		c-0.2,0-0.3,0.1-0.3,0.1c-0.1-0.2,0-0.7,0.7-0.6c0.4,0.1,0.6,0.4,0.6,0.7c0,0.3-0.1,0.7-0.1,0.7s0.4-0.1,0.8-0.1h0.1
		c0.4,0.1,0.6,0.3,0.7,0.7c0.1,0.4-0.3,0.7-0.3,0.7s0.1-0.3-0.2-0.5c-0.1,0-0.2-0.1-0.3-0.1c-0.4-0.1-0.7,0.4-0.6,0.7
		c0,0.5-0.1,1-0.5,1c-0.1,0-0.2,0-0.2,0c-0.3,0-0.3-0.2-0.3-0.2s0.4,0,0.4-0.4c0-1-1.7-1-2.4-1.3c-0.6-0.3-0.8-0.6-0.8-0.6
		s0,0,0,0.3c0.1,1,0.7,1.1,1.4,1.2c0.4,0.1,0.9,0.5,0.9,1.1c0,0.8-0.6,0.7-0.6,0.7s0.2-0.7-0.4-0.8c0,0-0.1,0-0.2,0
		c-0.3,0-0.5,0.2-0.7,0.3c-0.3,0.3-1.3,1.4-1.5,1.6c-0.2-0.2-1.1-1.3-1.5-1.6c-0.2-0.2-0.4-0.3-0.7-0.3c-0.1,0-0.1,0-0.2,0
		c-0.6,0.1-0.4,0.8-0.4,0.8s-0.6,0.1-0.6-0.7c0-0.6,0.5-0.9,0.9-1.1c0.6-0.1,1.3-0.2,1.4-1.2c0-0.2,0-0.3,0-0.3s-0.2,0.3-0.8,0.6
		c-0.7,0.3-2.4,0.3-2.4,1.3c0,0.4,0.4,0.4,0.4,0.4s0,0.2-0.3,0.2c-0.1,0-0.1,0-0.2,0c-0.4-0.1-0.5-0.5-0.5-1c0-0.3-0.2-0.8-0.6-0.7
		c-0.1,0-0.2,0-0.3,0.1c-0.3,0.2-0.2,0.5-0.2,0.5s-0.4-0.2-0.3-0.7c0.1-0.4,0.3-0.6,0.7-0.7h0.1c0.5-0.1,0.8,0.1,0.8,0.1
		S60,98.3,60,97.9c0-0.3,0.2-0.6,0.6-0.7c0.7-0.1,0.8,0.3,0.7,0.6c0,0-0.2-0.2-0.3-0.1h-0.1c-0.1,0.1-0.2,0.1-0.2,0.2
		c-0.1,0.1,0.1,0.4,0.1,0.4c0.1,0.2,0.5,0.3,1.1,0.2c0.6-0.1,1-0.5,1.2-0.9c0.1-0.2,0.2-0.3,0.1-0.5l0.3-3.6c0,0,0.1-0.9-0.5-1
		c-0.1,0-0.1,0-0.2,0c-0.5,0.1-1.1,0.8-0.9,1.7c0.1,0.7-0.2,1.2-0.6,1.3c-0.4,0.1-0.7,0-0.8-0.3c0.7-0.1,0.7-0.6,0.5-0.9
		c-0.1-0.1-0.2-0.1-0.4-0.1c-0.7,0.1-1.8,1.1-2,1.6s0.2,0.4,0.4,0.8c0.1,0.3-0.2,0.6-0.2,0.6c0,0.1,0,0.2,0,0.3
		c-0.1,0.3-0.2,0.4-0.4,0.4c-0.1,0-0.2,0-0.3,0c0.2-0.1,0.2-0.3,0.3-0.4c0-0.1,0-0.2,0-0.2s-0.2,0-0.4-0.3s0-0.4-0.2-0.8
		s-0.9-0.7-1.4-0.8h-0.1c-0.1,0-0.2,0.1-0.3,0.1h-0.1c-0.4,0-0.3-0.2-0.6-0.2c-0.2,0-0.3,0.2-0.2,0.4v0.1c-0.2-0.1-0.3-0.3-0.3-0.5
		c0-0.5,0.3-0.9,0.6-0.9c0.4,0,0.5,0.2,0.6,0.2c0.2-0.9-0.5-0.6-0.8-1c-0.2-0.3-0.1-0.4-0.1-0.5c0-0.2-0.2-0.2-0.4-0.1
		c-0.1,0-0.1,0-0.1,0s0.1-0.4,0.5-0.5c0.1,0,0.3,0,0.6,0.1c0.2-0.1,0.4,0,0.5,0.2s0,0.4,0,0.6c0.1,0.6,0.4,0.6,0.5,0.5
		c-0.3-0.8,0.1-1.1,0.1-1.2s0-0.3-0.2-0.4c0,0-0.1-0.1,0-0.1c0,0,0.8,0,0.9,0.5c0,0,0.3,0.2,0.3,0.6c0,0.5-0.3,0.6-0.4,0.7
		c0.1,0.6,0.4,0.6,0.7,0.6s0.6-0.2,0.6-0.2c0.5-0.2,1.6-0.9,1.3-1.4c-0.1-0.2-0.3-0.4-0.6-0.3c-0.1,0-0.2,0.1-0.3,0.2
		c-0.3,0.3-0.2,0.7-0.2,0.7c-0.5,0.1-0.7-0.7-0.4-1c0.2-0.2,0.5-0.3,0.7-0.4c0.3-0.1,0.6,0,1-0.1s0.7-0.3,0.9-0.8
		c0.2-0.3,0.2-0.8,0-1.2c-0.2-0.4-0.6-0.9-1.1-1c-0.1,0.9-0.6,1.6-1.2,2c-0.1,0.1-0.3,0.2-0.5,0.2c-0.1,0-0.2,0-0.1,0
		c0.8-0.9,0.6-1.9,0.6-2c-0.1,0.1-0.7,1.2-1.7,1.7c-0.1,0-0.2,0.1-0.3,0.1c-0.6,0.1-1.2-0.2-0.9-0.2c0.4-0.1,1.9-1,1.5-2.9
		c-0.1,0.1-0.7,1.3-1.6,1.9c-0.4,0.2-0.7,0.4-1.1,0.4c-0.7,0.1-1.2-0.1-1.1-0.2c0,0,1.8-0.9,1.9-1.7c-0.1,0-0.6,0.4-1.1,0.5
		c-0.1,0-0.2,0-0.2,0c-1.6,0-1.6-1.1-1.6-1.1c0.1,0,1.6,0.1,2.8-2.4c0,0-0.8,0.3-1.7,0.4c-0.5,0.1-0.8-0.3-0.7-0.3s0.2,0,0.3,0
		c0.3,0,0.7-0.2,1.2-0.6c-0.1-0.1-2.1-0.9-1.3-2.2c0,0,0.5,0.5,1.2,0.5c0.5,0,1.3-0.1,1.5-0.5c0,0-1-0.1-2-0.7c0,0-0.1,0-0.1-0.1
		c-0.5,0-0.9,0-1.4,0.1c-0.3,1.3-1.4,2.2-2.6,2.2c-1.3,0-2.3-0.9-2.6-2.2c-0.8-0.1-1.6-0.2-2.4-0.1L26.9,101c1.7,1.6,3.6,3,5.6,4.1
		l16.8-17.9V97l-10.5,11.2c3.8,1.3,7.7,1.9,11.1,1.9c13.1,0,32.6-8.6,32.2-32.5V62.1L73.3,71h-8.9l17.3-18.4v-10L63.5,61.8
		c0.1,0.1,0.1,0.1,0.1,0.2L63.7,80.9z M61.7,86.6h6v-2.4h-6V86.6z M64.7,91.3c2.7,0,2.9-2.5,2.9-2.5h-5.8
		C61.8,88.8,62,91.3,64.7,91.3 M29.2,49.6h6v-2.4h-6V49.6z M32.2,54.3c2.7,0,2.9-2.5,2.9-2.5h-5.8C29.3,51.8,29.5,54.3,32.2,54.3
		 M48.2,81.8c0,0.7,0.6,1.3,1.3,1.3s1.3-0.6,1.3-1.3c0-0.7-0.6-1.3-1.3-1.3C48.8,80.6,48.2,81.1,48.2,81.8 M36.2,62.5v19.6
		c0,0,0.2,0.3,1.5-0.1c1.5-0.4,3.4-2.3,6-2.9c2-0.4,4.6,0.2,5.2,0.6V60.1c0,0-1.2-1.2-3.1-1.2c-1.9,0-5.1,1.7-6.4,2.3
		c-1.1,0.5-2.2,0.9-3,1C36.1,62.3,36.2,62.5,36.2,62.5 M53.4,79.1c3.4,0,5.2,2.1,6.3,2.6c2.7,1.1,3.1,0.5,3.1,0.5V62.5
		c0-0.2-0.3-0.2-0.3-0.2s-2.6-0.4-3.5-1c-0.9-0.5-4.1-2.4-6.4-2.4c-2.3,0-2.8,1-2.8,1v19.9C49.9,79.8,51,79.1,53.4,79.1"/>
</g>
</svg>
