<svg id="Layer_1" data-name="Layer 1" xmlns="http://www.w3.org/2000/svg" viewBox="0 0 140.65 58"><defs><style>.cls-1{fill:#ddbada;}.cls-2{fill:#ffe600;}.cls-3{fill:#e04883;}.cls-4{fill:#01617e;}.cls-5{fill:#fff;}.cls-6{fill:none;}.cls-7{fill:#8b9934;}</style></defs><path class="cls-1" d="M5.9,38.69l1.39.08a22.52,22.52,0,0,0,3.86-.33,1.48,1.48,0,0,1,.77-.23H12l.22-.07.57-.21.38-.09a10.6,10.6,0,0,0,2.19-6.64,7.84,7.84,0,0,0-2.74-6.09A33.07,33.07,0,0,0,7,24.58a22.24,22.24,0,0,0-4.23.52c-.28.06-.62.1-1,.14v12.9A8.12,8.12,0,0,1,3,38.25,25.68,25.68,0,0,0,5.9,38.69Z" transform="translate(-1.81 -0.8)"/><path class="cls-2" d="M37.31,42c-3.74-1.81-15,2.61-19.16,3.71-3.62,1-9.85,4.45-16.34,4.28v8.8H39.56C39.51,52.28,40.4,43.5,37.31,42Z" transform="translate(-1.81 -0.8)"/><path class="cls-3" d="M32.83,41.24c-5-3-13.65-.47-10.47,7.37,0,0-3.16,3.17-1.43,5.79a10.23,10.23,0,0,0-4.76,4.4H35.76C37.75,52.29,37.18,43.82,32.83,41.24Z" transform="translate(-1.81 -0.8)"/><path class="cls-4" d="M39.92,57.47s2.19-.62,1.79-2.4a3.22,3.22,0,0,0-1.79-2.3,2.65,2.65,0,0,0,1.78-2.66c-.21-2-2.52-2.87-2.52-2.87s2.1-1.57,1.77-3.52a2.74,2.74,0,0,0-2.53-2.08c.69-.9,2.53-1.28-.07-4.15a3.36,3.36,0,0,0,.52-.92c1-2.69-3-8-6.68-5.35,0,0-4.3-.09-2.55,3a4.08,4.08,0,0,0-2.9,1.1,3,3,0,0,0-.37,3s-2.17-1.08-3.44-.07-.45,3.29-.45,3.29S20.63,40,19,40.86s-1,3.16-1,3.16S16.55,42,14.6,42.83a3.29,3.29,0,0,0-2.17,3.36c-.08-.44-.52-2.17-3-2.17a2.29,2.29,0,0,0-2.5,1.85c0-.69-.45-1.67-2.38-1.85a4.07,4.07,0,0,0-2.74.54V55.05a2.56,2.56,0,0,0,1.65-1.66s1.09,4.35,3.93.17a2.17,2.17,0,0,0,2.66,1.57c2.89-.47,2.65-2.36,2.65-2.36a2.54,2.54,0,0,0,2.91,1.55,2.47,2.47,0,0,0,2.13-3.23s1.82,2.25,3.88,1.06c2.28-1.32,1.13-3,.77-3.48.38.43,1.89,1.91,3.73.93,2.13-1.13.62-3.31.62-3.31s2.22,1.57,3.72.89.62-3.16.62-3.16a2.32,2.32,0,0,0,1.58.64l-.18,1.15c-.09,2.72,1.79,3.06,1.79,3.06a3.46,3.46,0,0,0-2.63,3.28c0,1.8,2.68,2.42,2.68,2.42S31.45,55.71,32,58.24a3.77,3.77,0,0,0,.15.56h9.47A2.68,2.68,0,0,0,39.92,57.47Z" transform="translate(-1.81 -0.8)"/><path class="cls-1" d="M11.69,49c4.73-.65,9.88-2.2,13.65-5.25a34.8,34.8,0,0,0,5.1-5.61,11.89,11.89,0,0,1,2.69-2.41c2.08-1.37,3.54-.36,5,1.18.24.25.59-.06.45-.35-1.75-3.69-5.47-1.7-7.63.37-1.8,1.73-3.19,3.77-5.1,5.41a24.41,24.41,0,0,1-7.77,4.2A40.29,40.29,0,0,1,1.81,48.35v.91A48,48,0,0,0,11.69,49Z" transform="translate(-1.81 -0.8)"/><path class="cls-4" d="M63.23,9.65a9.16,9.16,0,0,1,6.37,2.77l-3,3.42a4.67,4.67,0,0,0-3.29-1.42c-2.51,0-4.64,2.26-4.64,6.06s1.81,6.12,4.51,6.12a4.82,4.82,0,0,0,3.67-1.68l3,3.35a8.76,8.76,0,0,1-6.76,3.09C57.62,31.36,53,27.82,53,20.67S57.82,9.65,63.23,9.65Z" transform="translate(-1.81 -0.8)"/><path class="cls-4" d="M72.76,10H86.28v4.64h-8V18h6.83V22.6H78.3v3.74h8.31V31H72.76Z" transform="translate(-1.81 -0.8)"/><path class="cls-4" d="M101.94,31l-3.61-7H96.2v7H90.66V10h7.93c4.51,0,8.37,1.55,8.37,6.76a6.43,6.43,0,0,1-3.38,6.06L108.12,31ZM96.2,19.57h2c2.19,0,3.35-1,3.35-2.77s-1.16-2.38-3.35-2.38h-2Z" transform="translate(-1.81 -0.8)"/><path class="cls-4" d="M114.33,14.68h-5.54V10h16.62v4.64h-5.54V31h-5.54Z" transform="translate(-1.81 -0.8)"/><path class="cls-4" d="M128.5,10h14v4.64H134V18h6.83V22.6H134v3.74h8.42V31h-14Z" transform="translate(-1.81 -0.8)"/><path class="cls-4" d="M57,37.64v3.63a.16.16,0,0,1-.16.16h-.32a.16.16,0,0,1-.16-.16V37.64a.52.52,0,0,0-1,0v3.63a.16.16,0,0,1-.16.16h-.32a.16.16,0,0,1-.16-.16V37.64a.52.52,0,0,0-1,0v3.63a.16.16,0,0,1-.16.16h-.32a.18.18,0,0,1-.16-.16V37.64a1.15,1.15,0,0,1,2-.79,1.15,1.15,0,0,1,2,.79Z" transform="translate(-1.81 -0.8)"/><path class="cls-4" d="M58.88,37.13v1.5h.87a.16.16,0,0,1,.16.16v.32a.16.16,0,0,1-.16.16h-.87v1.52h.87a.16.16,0,0,1,.16.16v.32a.16.16,0,0,1-.16.16H58.56a.32.32,0,0,1-.32-.32v-4.3a.32.32,0,0,1,.32-.32h1.19a.16.16,0,0,1,.16.16V37a.16.16,0,0,1-.16.16Z" transform="translate(-1.81 -0.8)"/><path class="cls-4" d="M63.5,37.64v2.63a1.15,1.15,0,0,1-1.15,1.16h-.84a.33.33,0,0,1-.32-.32v-4.3a.32.32,0,0,1,.32-.32h.84A1.15,1.15,0,0,1,63.5,37.64Zm-.64,0a.51.51,0,0,0-.51-.51h-.52v3.65h.52a.51.51,0,0,0,.51-.51Z" transform="translate(-1.81 -0.8)"/><path class="cls-4" d="M65.42,41.27a.16.16,0,0,1-.16.16h-.32a.16.16,0,0,1-.16-.16V36.65a.16.16,0,0,1,.16-.16h.32a.16.16,0,0,1,.16.16Z" transform="translate(-1.81 -0.8)"/><path class="cls-4" d="M68.27,38v-.33a.51.51,0,0,0-1,0c0,.12,0,.12,0,.16l1.38,1.84c.24.32.24.32.24.64a1.15,1.15,0,1,1-2.29,0v-.34a.16.16,0,0,1,.16-.16h.32a.16.16,0,0,1,.16.16v.34a.51.51,0,0,0,1,0c0-.13,0-.13,0-.17l-1.39-1.84c-.24-.32-.24-.32-.24-.63a1.15,1.15,0,1,1,2.29,0V38a.16.16,0,0,1-.16.16h-.32A.15.15,0,0,1,68.27,38Z" transform="translate(-1.81 -0.8)"/><path class="cls-4" d="M71.75,38v-.33a.51.51,0,1,0-1,0v2.64a.51.51,0,1,0,1,0v-.37a.16.16,0,0,1,.16-.16h.31a.16.16,0,0,1,.16.16v.37a1.15,1.15,0,1,1-2.29,0V37.64a1.15,1.15,0,1,1,2.29,0V38a.16.16,0,0,1-.16.16h-.31A.16.16,0,0,1,71.75,38Z" transform="translate(-1.81 -0.8)"/><path class="cls-4" d="M75.87,36.65v4.62a.16.16,0,0,1-.16.16h-.32a.16.16,0,0,1-.16-.16v-2h-1v2a.16.16,0,0,1-.16.16h-.32a.16.16,0,0,1-.16-.16V36.65a.16.16,0,0,1,.16-.16h.32a.16.16,0,0,1,.16.16v2h1v-2a.16.16,0,0,1,.16-.16h.32A.16.16,0,0,1,75.87,36.65Z" transform="translate(-1.81 -0.8)"/><path class="cls-4" d="M77.79,37.13v1.5h.87a.16.16,0,0,1,.16.16v.32a.16.16,0,0,1-.16.16h-.87v1.52h.87a.16.16,0,0,1,.16.16v.32a.16.16,0,0,1-.16.16H77.47a.32.32,0,0,1-.32-.32v-4.3a.32.32,0,0,1,.32-.32h1.19a.16.16,0,0,1,.16.16V37a.16.16,0,0,1-.16.16Z" transform="translate(-1.81 -0.8)"/><path class="cls-4" d="M84.3,37.64v2.63a1.15,1.15,0,0,1-1.14,1.16h-.84a.33.33,0,0,1-.32-.32v-4.3a.32.32,0,0,1,.32-.32h.84A1.15,1.15,0,0,1,84.3,37.64Zm-.64,0a.51.51,0,0,0-.5-.51h-.52v3.65h.52a.51.51,0,0,0,.5-.51Z" transform="translate(-1.81 -0.8)"/><path class="cls-4" d="M86.23,41.27a.16.16,0,0,1-.16.16h-.32a.16.16,0,0,1-.16-.16V36.65a.16.16,0,0,1,.16-.16h.32a.16.16,0,0,1,.16.16Z" transform="translate(-1.81 -0.8)"/><path class="cls-4" d="M89.82,37.64v3.63a.16.16,0,0,1-.16.16h-.32a.16.16,0,0,1-.16-.16v-2h-1v2a.16.16,0,0,1-.16.16h-.32a.16.16,0,0,1-.16-.16V37.64a1.16,1.16,0,0,1,2.31,0Zm-.64,0a.52.52,0,0,0-1,0v1h1Z" transform="translate(-1.81 -0.8)"/><path class="cls-4" d="M92.76,38v-.34a.51.51,0,0,0-1,0v2.65a.51.51,0,1,0,1,0v-1h-.35a.16.16,0,0,1-.16-.15v-.32a.16.16,0,0,1,.16-.16h.83a.16.16,0,0,1,.16.16v1.5a1.15,1.15,0,0,1-2.3,0V37.64a1.15,1.15,0,0,1,2.3,0V38a.16.16,0,0,1-.16.16h-.32A.16.16,0,0,1,92.76,38Z" transform="translate(-1.81 -0.8)"/><path class="cls-4" d="M97,37.64v3.63a.16.16,0,0,1-.16.16h-.32a.16.16,0,0,1-.16-.16V37.64a.52.52,0,0,0-1,0v3.63a.16.16,0,0,1-.16.16h-.32a.16.16,0,0,1-.15-.16V37.64a1.15,1.15,0,1,1,2.3,0Z" transform="translate(-1.81 -0.8)"/><path class="cls-4" d="M100.58,37.64v2.63a1.15,1.15,0,1,1-2.3,0V37.64a1.15,1.15,0,1,1,2.3,0Zm-.64,0a.52.52,0,0,0-1,0v2.63a.52.52,0,1,0,1,0Z" transform="translate(-1.81 -0.8)"/><path class="cls-4" d="M103.42,38v-.33a.51.51,0,0,0-.51-.51.5.5,0,0,0-.5.51c0,.12,0,.12,0,.16l1.38,1.84c.24.32.24.32.24.64a1.15,1.15,0,1,1-2.29,0v-.34a.16.16,0,0,1,.16-.16h.32a.16.16,0,0,1,.16.16v.34a.5.5,0,0,0,.5.51.51.51,0,0,0,.51-.51c0-.13,0-.13,0-.17L102,38.27c-.24-.32-.24-.32-.24-.63a1.15,1.15,0,1,1,2.29,0V38a.16.16,0,0,1-.16.16h-.32A.16.16,0,0,1,103.42,38Z" transform="translate(-1.81 -0.8)"/><path class="cls-4" d="M107,36.65V37a.16.16,0,0,1-.16.16h-.44v4.14a.16.16,0,0,1-.16.16h-.32a.16.16,0,0,1-.16-.16V37.13h-.45a.16.16,0,0,1-.16-.16v-.32a.16.16,0,0,1,.16-.16h1.53A.16.16,0,0,1,107,36.65Z" transform="translate(-1.81 -0.8)"/><path class="cls-4" d="M108.83,41.27a.16.16,0,0,1-.16.16h-.32a.16.16,0,0,1-.16-.16V36.65a.16.16,0,0,1,.16-.16h.32a.16.16,0,0,1,.16.16Z" transform="translate(-1.81 -0.8)"/><path class="cls-4" d="M110.75,37.13v1.5h.87a.16.16,0,0,1,.16.16v.32a.16.16,0,0,1-.16.16h-.87v1.52h.87a.16.16,0,0,1,.16.16v.32a.16.16,0,0,1-.16.16h-1.19a.32.32,0,0,1-.32-.32v-4.3a.32.32,0,0,1,.32-.32h1.19a.16.16,0,0,1,.16.16V37a.16.16,0,0,1-.16.16Z" transform="translate(-1.81 -0.8)"/><path class="cls-4" d="M115.37,38.11A1.16,1.16,0,0,1,115,39a1.14,1.14,0,0,1,.36.83v1.49a.16.16,0,0,1-.16.16h-.32a.16.16,0,0,1-.16-.16V39.78a.51.51,0,0,0-.52-.51h-.5v2a.16.16,0,0,1-.16.16h-.32a.16.16,0,0,1-.16-.16V36.65a.16.16,0,0,1,.16-.16h.32a.16.16,0,0,1,.16.16v2h.5a.52.52,0,0,0,.52-.52V36.65a.16.16,0,0,1,.16-.16h.32a.16.16,0,0,1,.16.16Z" transform="translate(-1.81 -0.8)"/><path class="cls-4" d="M121.53,38.29v.32a.16.16,0,0,1-.16.16h-.51v2.5a.16.16,0,0,1-.16.16h-1a1.16,1.16,0,0,1-1.15-1.16v-1a1.12,1.12,0,0,1,.36-.84,1.1,1.1,0,0,1-.36-.83,1.16,1.16,0,0,1,1.15-1.15H120a.16.16,0,0,1,.16.16V37a.16.16,0,0,1-.16.16h-.34a.51.51,0,1,0,0,1h.52v-.51a.16.16,0,0,1,.16-.15h.32a.16.16,0,0,1,.16.15v.51h.51A.16.16,0,0,1,121.53,38.29Zm-1.31.48h-.52a.52.52,0,0,0-.51.52v1a.51.51,0,0,0,.51.52h.52Z" transform="translate(-1.81 -0.8)"/><path class="cls-4" d="M126.91,37.64v3.63a.16.16,0,0,1-.16.16h-.32a.16.16,0,0,1-.16-.16v-2h-1v2a.16.16,0,0,1-.16.16h-.32a.16.16,0,0,1-.16-.16V37.64a1.15,1.15,0,0,1,2.3,0Zm-.64,0a.51.51,0,0,0-.51-.5.5.5,0,0,0-.51.5v1h1Z" transform="translate(-1.81 -0.8)"/><path class="cls-4" d="M130.5,37.64v2.63a1.15,1.15,0,0,1-1.15,1.16h-.83a.33.33,0,0,1-.32-.32v-4.3a.32.32,0,0,1,.32-.32h.83A1.15,1.15,0,0,1,130.5,37.64Zm-.64,0a.51.51,0,0,0-.51-.51h-.51v3.65h.51a.51.51,0,0,0,.51-.51Z" transform="translate(-1.81 -0.8)"/><path class="cls-4" d="M134.08,36.66v3.1a1.2,1.2,0,0,1-.19.64l-.54,1a.16.16,0,0,1-.14.08h-.55a.16.16,0,0,1-.14-.08l-.54-1a1.2,1.2,0,0,1-.19-.64v-3.1a.16.16,0,0,1,.16-.16h.32a.16.16,0,0,1,.16.16v3.1a.41.41,0,0,0,0,.16l.48.86.48-.86a.78.78,0,0,0,0-.16v-3.1a.16.16,0,0,1,.16-.16h.32A.16.16,0,0,1,134.08,36.66Z" transform="translate(-1.81 -0.8)"/><path class="cls-4" d="M136,41.27a.16.16,0,0,1-.16.16h-.32a.16.16,0,0,1-.16-.16V36.65a.16.16,0,0,1,.16-.16h.32a.16.16,0,0,1,.16.16Z" transform="translate(-1.81 -0.8)"/><path class="cls-4" d="M137.94,37.13v1.5h.87a.16.16,0,0,1,.16.16v.32a.16.16,0,0,1-.16.16h-.87v1.52h.87A.16.16,0,0,1,139,41v.32a.16.16,0,0,1-.16.16h-1.19a.32.32,0,0,1-.32-.32v-4.3a.32.32,0,0,1,.32-.32h1.19a.16.16,0,0,1,.16.16V37a.16.16,0,0,1-.16.16Z" transform="translate(-1.81 -0.8)"/><path class="cls-4" d="M141.81,38v-.33a.51.51,0,1,0-1,0c0,.12,0,.12,0,.16l1.39,1.84c.24.32.24.32.24.64a1.15,1.15,0,1,1-2.29,0v-.34a.16.16,0,0,1,.15-.16h.32a.16.16,0,0,1,.16.16v.34a.51.51,0,1,0,1,0c0-.13,0-.13,0-.17l-1.38-1.84c-.24-.32-.24-.32-.24-.63a1.15,1.15,0,1,1,2.29,0V38a.16.16,0,0,1-.16.16H142A.16.16,0,0,1,141.81,38Z" transform="translate(-1.81 -0.8)"/><path class="cls-4" d="M65.27,50.84l1.37-2.08H65.4V48h2.34v.54l-1.38,2.08h1.39v.74H65.27Z" transform="translate(-1.81 -0.8)"/><path class="cls-4" d="M69.83,48H72v.75H70.72v.52h1.1V50h-1.1v.6h1.34v.74H69.83Z" transform="translate(-1.81 -0.8)"/><path class="cls-4" d="M74.26,48h.89v1.25h0L76,48h1l-1,1.37,1.2,2h-1l-.75-1.29-.32.46v.83h-.89Z" transform="translate(-1.81 -0.8)"/><path class="cls-4" d="M79.06,48h2.18v.75H80v.52h1.1V50H80v.6h1.34v.74H79.06Z" transform="translate(-1.81 -0.8)"/><path class="cls-4" d="M85.3,51.37l-.58-1.12h-.34v1.12h-.89V48h1.28c.72,0,1.34.25,1.34,1.09a1,1,0,0,1-.54,1l.73,1.3Zm-.92-1.83h.32c.36,0,.54-.15.54-.44s-.18-.38-.54-.38h-.32Z" transform="translate(-1.81 -0.8)"/><path class="cls-4" d="M90.52,48h.94l.35,1.47c.1.36.16.7.25,1.07h0c.1-.37.16-.71.25-1.07L92.67,48h.91l-1,3.36H91.51Z" transform="translate(-1.81 -0.8)"/><path class="cls-4" d="M95.31,49.68a1.57,1.57,0,1,1,3.13,0,1.58,1.58,0,1,1-3.13,0Zm2.22,0c0-.61-.25-1-.66-1s-.65.35-.65,1,.25,1,.65,1S97.53,50.29,97.53,49.68Z" transform="translate(-1.81 -0.8)"/><path class="cls-4" d="M100.44,49.68a1.57,1.57,0,1,1,3.13,0,1.58,1.58,0,1,1-3.13,0Zm2.22,0c0-.61-.25-1-.65-1s-.65.35-.65,1,.24,1,.65,1S102.66,50.29,102.66,49.68Z" transform="translate(-1.81 -0.8)"/><path class="cls-4" d="M107.53,51.37,107,50.25h-.34v1.12h-.89V48H107c.72,0,1.34.25,1.34,1.09a1,1,0,0,1-.54,1l.73,1.3Zm-.92-1.83h.32c.36,0,.54-.15.54-.44s-.18-.38-.54-.38h-.32Z" transform="translate(-1.81 -0.8)"/><path class="cls-4" d="M113,50.84l1.37-2.08H113.1V48h2.34v.54l-1.38,2.08h1.39v.74H113Z" transform="translate(-1.81 -0.8)"/><path class="cls-4" d="M117.39,49.68a1.57,1.57,0,1,1,3.12,0,1.57,1.57,0,1,1-3.12,0Zm2.21,0c0-.61-.25-1-.65-1s-.65.35-.65,1,.25,1,.65,1S119.6,50.29,119.6,49.68Z" transform="translate(-1.81 -0.8)"/><path class="cls-4" d="M124.47,51.37l-.57-1.12h-.35v1.12h-.88V48h1.27c.72,0,1.34.25,1.34,1.09a1,1,0,0,1-.54,1l.73,1.3Zm-.92-1.83h.33c.35,0,.53-.15.53-.44s-.18-.38-.53-.38h-.33Z" transform="translate(-1.81 -0.8)"/><path class="cls-4" d="M129,48a1.56,1.56,0,0,1,1.08.44l-.49.55a.8.8,0,0,0-.58-.22c-.46,0-.8.36-.8,1s.28,1,.88,1a.53.53,0,0,0,.26-.06v-.47h-.5v-.72h1.29V51a1.9,1.9,0,0,1-1.16.42,1.59,1.59,0,0,1-1.68-1.72A1.66,1.66,0,0,1,129,48Z" transform="translate(-1.81 -0.8)"/><rect class="cls-4" x="51.16" y="43.58" width="89.48" height="0.65"/><path class="cls-2" d="M20.93,4.76a31.23,31.23,0,0,0,3.29,6.18c1.69,2.12,2.28,5.5.85,7.5s-5.3,2.37-6.76.78-2.81-4-1.41-6.75S20.52,7.53,20.93,4.76Z" transform="translate(-1.81 -0.8)"/><path class="cls-5" d="M22.52,13.46c-1.11.55-1.11,2.35-.31,2.72A1.92,1.92,0,0,0,24.74,15C24.85,13.47,23.79,12.84,22.52,13.46Z" transform="translate(-1.81 -0.8)"/><path class="cls-6" d="M13.8,37.41c4.91-1.8,10.43-5.56,10.24-5.71s-4.14-5.33-12.95-6.61a20.67,20.67,0,0,0-9.28.79v11.8C6,38.35,11,38.45,13.8,37.41Z" transform="translate(-1.81 -0.8)"/><path class="cls-7" d="M17.81,24.63c6.78,3.12,7.78,5.55,7.78,5.55s-.88-5.73-9-8.78c-7.14-2.69-11.49-2-14.79-1v2.89A24.85,24.85,0,0,1,17.81,24.63Z" transform="translate(-1.81 -0.8)"/><path class="cls-7" d="M14.73,37.83c5.52-2,10.44-5.94,10.23-6.11s-4-6-13.92-7.43A21,21,0,0,0,1.81,25v.91a20.67,20.67,0,0,1,9.28-.79c8.81,1.28,12.76,6.45,13,6.61s-5.33,3.91-10.24,5.71c-2.79,1-7.78.94-12,.27v.85C6.22,39.21,11.42,39.06,14.73,37.83Z" transform="translate(-1.81 -0.8)"/><path class="cls-2" d="M3,33.32c.11.27-.89,1-.89,1s1-.4,1.18-.15-1.39,1.31-1.39,1.31,1.4-.68,1.62-.38-1,1.93-1,1.93,1.19-1.36,1.58-1.29S4.18,37,4.18,37s.48-1.31.89-1.14,0,1.6,0,1.6.69-1.31,1-1.27c.61.07.61,1.56.61,1.56s.15-1.64.51-1.68.46,1.09.46,1.09,0-1.09.37-1.16,1,1.59,1,1.59-.57-1.7-.32-1.88,1.46,1.88,1.46,1.88-.7-1.84-.44-2.27,2.1,1.15,2.1,1.15-1.28-1.4-1.1-1.93.89-.17,1.16,0c-.29-.14-1.1-.56-.9-.92s1.57,0,1.57,0-1.27-.69-1.17-1,2.07-.3,2.07-.3-1.63-.41-1.63-.7c0-.72,1.63-.8,1.63-.8s-1.41-.09-1.57-.58c-.09-.28,1.08-.91,1.08-.91s-1.51.36-1.66,0S12.39,27,12.39,27s-1.1,1.13-1.66.94.16-2.23.16-2.23-.93,1.86-1.4,1.61-.21-1-.14-1.61c0,0-.8,1.6-1.36,1.32s-.57-1.83-.57-1.83-.32,1.66-.76,1.76-.73-1.06-.73-1.06.1,1.42-.33,1.49-1.32-1.49-1.32-1.49.57,1.49.32,1.78-1.07-.4-1.07-.4.47.75.15,1-1.75-.6-1.75-.6S3.21,29,3,29.29s-.73,0-1.15-.19v.23c.26.27.53.59.49.73s-.23.16-.49.2v.38c.25.09.45.18.44.25s-.19.21-.44.32v.65c.41.09.75.22.76.39s-.34.53-.76.75v.31C2.37,33.23,2.91,33.18,3,33.32Z" transform="translate(-1.81 -0.8)"/><path class="cls-2" d="M11.89,34.49l.1,0Z" transform="translate(-1.81 -0.8)"/><path class="cls-4" d="M8.63,27.84a4.26,4.26,0,0,0-5.44,2.73c-.52,2,.55,4.25,3.55,4.57a4,4,0,0,0,4.18-3.26A3.4,3.4,0,0,0,8.63,27.84Z" transform="translate(-1.81 -0.8)"/><path class="cls-5" d="M10.75,25.74a2.09,2.09,0,0,0-1.49,2.58,1.77,1.77,0,0,0,2.69.91,2,2,0,0,0,.82-2.46A1.65,1.65,0,0,0,10.75,25.74Z" transform="translate(-1.81 -0.8)"/><path class="cls-5" d="M14,27.88a1.16,1.16,0,0,0-.83,1.44,1,1,0,0,0,1.5.51,1.1,1.1,0,0,0,.46-1.38A.92.92,0,0,0,14,27.88Z" transform="translate(-1.81 -0.8)"/><path class="cls-1" d="M33.74,42.45a.44.44,0,0,0,0,.85c2.18.54,1.83,6.84,1.89,8.49.08,2.33.09,4.67.06,7H37C37.18,52.71,37.22,41.59,33.74,42.45Z" transform="translate(-1.81 -0.8)"/><path class="cls-3" d="M41.8,6.37A17.2,17.2,0,0,1,43.24.8H40a14.12,14.12,0,0,0-.51,6l-.36.16A5.29,5.29,0,0,0,38,7.73a23,23,0,0,0-2-4.67C35.51,2.3,35,1.54,34.49.8H30.88a33.16,33.16,0,0,1,4,5.45c.63,1.06,1.12,2.18,1.73,3.21-1.91,3.38-1.53,8.33-1.53,8.33,1,8.9,6.1,9.84,6.1,9.84.41,4-5,10.81-5,10.81.76,2.68,3.89,6.2,8.74,7.83.05,2,.16,7,.22,12.53h4.41V12.12C48.13,9,45,6.44,41.8,6.37Z" transform="translate(-1.81 -0.8)"/><path class="cls-3" d="M45.58,6.32A16.47,16.47,0,0,1,48.12.8H45.64a8.72,8.72,0,0,0-1,5.52A.49.49,0,0,0,45.58,6.32Z" transform="translate(-1.81 -0.8)"/><path class="cls-3" d="M7.33,3.43C5.4,3,3.7,2.05,1.81,1.6V4.07C3.45,4.7,5.07,5.72,6.57,6.2A7.82,7.82,0,0,0,13,5.34c1.58-1,2.36-2.82,3-4.54H12.77C11.77,2.76,10.38,4.12,7.33,3.43Z" transform="translate(-1.81 -0.8)"/><path class="cls-2" d="M48.44,44.56a26.79,26.79,0,0,1-2.64-2.79,8.15,8.15,0,0,1-1.65-4.13A20.38,20.38,0,0,0,42.67,33a10.66,10.66,0,0,0-2.27-3.9.27.27,0,0,0-.44.29c.4,1.67,1.59,3.19,2.25,4.81a26.91,26.91,0,0,1,1.3,4.93c.58,2.85,2.77,3.92,4.91,5.49,0,0,0,0,0,0Z" transform="translate(-1.81 -0.8)"/><path class="cls-2" d="M46.61,36.65a6.1,6.1,0,0,0-1.69-3.95,7.35,7.35,0,0,0-1.66-1c-.74-.34-1.44-.79-2.18-1.09a.27.27,0,0,0-.35.39c.49.86,1.68,1.11,2.54,1.48a6.28,6.28,0,0,1,3.3,4.22,0,0,0,0,0,0,0Z" transform="translate(-1.81 -0.8)"/><path class="cls-2" d="M43,34.7c0,1.77,1.47,3,2.47,4.3a25.19,25.19,0,0,0,1.32,2.26c.54.58,1.84.41,2.49.55.1,0,.15-.12.06-.17-.84-.48-1.8-.12-2.51-1-.45-.55-.32-1.49-.72-2.1-.91-1.4-2.37-2.3-3-3.88a0,0,0,0,0-.06,0Z" transform="translate(-1.81 -0.8)"/><path class="cls-2" d="M43.94,39.87c-.07,1.91-.41,3.51,1.27,4.79.74.56,1.56.94,2.27,1.56A2.31,2.31,0,0,0,49,47c.09,0,.13-.15,0-.19-1-.44-1.72-1.42-2.69-2a4.9,4.9,0,0,1-1.72-1.44c-.69-1-.24-2.37-.28-3.5,0-.28-.43-.25-.44,0Z" transform="translate(-1.81 -0.8)"/><path class="cls-2" d="M41.64,41.31c.22-1.27-.2-2.55,0-3.86s.61-2.46.65-3.73c0-.23-.33-.23-.38,0a21.55,21.55,0,0,0-.81,4.13,11.59,11.59,0,0,0,.57,3.49Z" transform="translate(-1.81 -0.8)"/><path class="cls-7" d="M9.43,13.76c.83,1.45,1.56,3.19,3.23,3.87a5.7,5.7,0,0,0,4.73-.15c2.9-1.41,3.48-5.24,6.14-6.71,3.44-1.9,6.39.59,8,4.16.08.27.16.54.25.82.9,2.76.06,8.54.06,8.54-2.6,3.67-.56,9,1.83,12.42,4,5.74,6.68,5.73,6.51-.49s1.77-5.32,2.93-8.58c1.41-4-.76-6.61-4.32-5.77S36.4,18.22,35,15.55a21.5,21.5,0,0,0-2.31-3.78C30,7.54,24.13,5.32,20.34,10.26c-1.82,2.37-4.07,9.19-8.06,5.1-1.43-1.48-1.76-3.59-3.46-4.92A5.71,5.71,0,0,0,3.16,10a8.23,8.23,0,0,0-1.35.79V14C4.42,11.51,7.11,9.7,9.43,13.76Z" transform="translate(-1.81 -0.8)"/><path class="cls-3" d="M30.1,21.08a18.66,18.66,0,0,0,2,3.69c1,1.26,1.36,3.28.51,4.47s-3.16,1.42-4,.47a3.46,3.46,0,0,1-.84-4C28.53,24,29.86,22.74,30.1,21.08Z" transform="translate(-1.81 -0.8)"/><path class="cls-5" d="M31.38,25.94c-.53,0-.86.7-.62,1a.81.81,0,0,0,1.2,0A.61.61,0,0,0,31.38,25.94Z" transform="translate(-1.81 -0.8)"/><path class="cls-1" d="M47.42,57.92a1.63,1.63,0,0,0-.61-.83.43.43,0,0,0-.64.55,1.63,1.63,0,0,0,.77.6c.18,0,.56-.08.48-.32Z" transform="translate(-1.81 -0.8)"/><path class="cls-1" d="M47.67,56.69c.4-.17.45-.73.49-1.11a.49.49,0,0,0-.38-.58.5.5,0,0,0-.58.37,2.09,2.09,0,0,0,0,.93c.07.17.24.5.48.39Z" transform="translate(-1.81 -0.8)"/><path class="cls-1" d="M49.25,55.86c.31-.38,0-1.07-.09-1.48-.19-.6-1.07-.29-.91.31a2.59,2.59,0,0,0,.4,1c.11.14.42.41.6.2Z" transform="translate(-1.81 -0.8)"/><path class="cls-1" d="M46.38,54.66c.57,0,.83-.64,1-1.11a.52.52,0,0,0-.11-.61.51.51,0,0,0-.72,0,2.33,2.33,0,0,0-.42,1.46.22.22,0,0,0,.25.22Z" transform="translate(-1.81 -0.8)"/><path class="cls-1" d="M49.24,52.93c.35-.44-.38-1.14-.62-1.47a.47.47,0,0,0-.79.52c.14.22,1.1,1.33,1.41,1Z" transform="translate(-1.81 -0.8)"/><path class="cls-1" d="M46.79,52.64h0a.39.39,0,0,0,.33-.22,2.57,2.57,0,0,0,.31-1.12c0-.47-.57-.58-.86-.31a1.22,1.22,0,0,0-.22.79c0,.33,0,.85.42.86Z" transform="translate(-1.81 -0.8)"/><path class="cls-1" d="M48.83,50.23a2.55,2.55,0,0,0,.37-.69,1.64,1.64,0,0,0,.27-.69.46.46,0,0,0-.6-.4c-.28.08-.42.41-.52.66a1.39,1.39,0,0,0-.11,1,.35.35,0,0,0,.59.12Z" transform="translate(-1.81 -0.8)"/><path class="cls-1" d="M47.61,50c.35-.31,0-1-.18-1.29-.28-.51-1.15-.09-.91.44a2.21,2.21,0,0,0,.69.88.29.29,0,0,0,.4,0Z" transform="translate(-1.81 -0.8)"/><path class="cls-1" d="M45.87,52.06a1.54,1.54,0,0,0,.23-.63,3.16,3.16,0,0,0,.11-.81.45.45,0,0,0-.89-.07,3.18,3.18,0,0,0,0,.82.91.91,0,0,0,.26.71.25.25,0,0,0,.34,0Z" transform="translate(-1.81 -0.8)"/><path class="cls-1" d="M48.67,57.39c0-.6-1-.54-.92,0a3.23,3.23,0,0,0,.31,1.36h.47C48.84,58.49,48.69,57.74,48.67,57.39Z" transform="translate(-1.81 -0.8)"/><path class="cls-1" d="M46.51,58.8h.88s0,0-.06-.07C47.1,58.5,46.77,58.64,46.51,58.8Z" transform="translate(-1.81 -0.8)"/><path class="cls-7" d="M40.18,12.6c-1.36,4.13,1.13,10,1.38,10.08,6.57,1.16,4.16-4.55,3.76-6.78-.58-3.32,1.78-7.47,4.29-10.33V.8H49c-.35.27-.7.55-1,.85C45.06,4.28,41.92,7.28,40.18,12.6Z" transform="translate(-1.81 -0.8)"/></svg>