<?xml version="1.0" encoding="UTF-8"?>
<svg id="Layer_1" data-name="Layer 1" xmlns="http://www.w3.org/2000/svg" viewBox="0 0 1375.95 263.65">
  <defs>
    <style>
      .cls-1 {
        fill: #003183;
      }
    </style>
  </defs>
  <path class="cls-1" d="M909.54,200.5c-10.72,4.39-22.44,6.57-35.15,6.57-14.9,0-28.07-3.24-39.52-9.72-11.44-6.48-20.35-15.41-26.71-26.8-6.36-11.38-9.53-24.44-9.53-39.15s3.17-28.2,9.53-39.42c6.35-11.21,15.26-20.05,26.71-26.54,11.44-6.48,24.61-9.72,39.52-9.72,12.71,0,24.43,2.19,35.15,6.57,8.32,3.4,15.71,8.12,22.17,14.16,3.17,2.96,8.12,2.85,11.22-.18l33.38-32.63c-12.36-14.01-27.34-24.78-44.96-32.32C913.72,3.77,894.73,0,874.39,0,848.59,0,825.25,5.78,804.36,17.34c-20.9,11.56-37.33,27.25-49.32,47.04-11.99,19.8-17.99,42.13-17.99,67.01s5.99,46.77,17.99,66.75c11.99,19.97,28.42,35.74,49.32,47.3,20.89,11.56,44.23,17.34,70.03,17.34,20.34,0,39.32-3.77,56.95-11.3,17.62-7.53,32.6-18.3,44.96-32.32l-33.37-32.63c-3.1-3.03-8.06-3.14-11.22-.18-6.46,6.04-13.85,10.76-22.17,14.15Z"/>
  <path class="cls-1" d="M519.02,263.24h-60.25c-.07-3.41.09-151.16,0-154.54,0-31.57-25.59-57.16-57.16-57.16s-55.13,23.63-57.03,53.49c-.91,1.86.12,156.17-.28,158.21h-60.24V.35h52.06c4.52,0,8.18,3.66,8.18,8.18v18.71C362.06,12.31,392.93-1.57,419.89.35c33.28-.33,65.5,11.73,84.62,38.41,41.12-51.48,136.94-52.58,175.53,2.12,9.12,14.61,13.69,32.13,13.69,52.58v169.78h-60.25c-.93-5.07,1.52-154.15-.43-159.78-2.68-29.07-27.13-51.84-56.9-51.84-30.87-.02-55.95,24.48-57.13,54.98v156.64Z"/>
  <path class="cls-1" d="M168.69,150.06c0,19.36-4.65,34.23-13.97,44.64-9.31,10.41-22.73,15.61-40.25,15.61-11.32,0-21.09-2.37-29.3-7.12-8.22-4.74-14.43-11.59-18.62-20.54-4.2-8.94-6.3-19.8-6.3-32.59V10.23C60.24,4.58,55.67,0,50.02,0H0v152.8c0,22.64,4.84,42.63,14.51,59.97,9.67,17.35,23.18,26.07,40.53,35.92,17.34,9.86,37.15,14.79,59.42,14.79s42.53-4.84,59.7-14.51c17.16-9.67,30.58-18.3,40.25-35.65,9.67-17.34,14.51-37.52,14.51-60.52V0h-50.02C173.26,0,168.69,4.58,168.69,10.23v139.84Z"/>
  <path class="cls-1" d="M1342.85,263.65c-9.46,0-17.73-3.15-24.03-9.85-6.31-6.7-9.46-14.58-9.46-24.03s3.15-17.73,9.46-24.03c6.3-6.7,14.18-9.85,24.03-9.85s17.34,3.15,23.64,9.85c6.31,6.7,9.46,14.58,9.46,24.03s-3.15,17.34-9.46,24.03c-6.31,6.7-14.19,9.85-23.64,9.85Z"/>
  <path class="cls-1" d="M1342.85,166.22c-9.46,0-17.73-3.15-24.03-9.85-6.31-6.7-9.46-14.58-9.46-24.03s3.15-17.73,9.46-24.03c6.3-6.7,14.18-9.85,24.03-9.85s17.34,3.15,23.64,9.85c6.31,6.7,9.46,14.58,9.46,24.03s-3.15,17.34-9.46,24.03c-6.31,6.7-14.19,9.85-23.64,9.85Z"/>
  <path class="cls-1" d="M1342.86,68.23c-9.46,0-17.73-3.15-24.03-9.85-6.31-6.7-9.46-14.58-9.46-24.03s3.15-17.73,9.46-24.03c6.31-6.7,14.18-9.85,24.03-9.85s17.34,3.15,23.64,9.85c6.31,6.7,9.46,14.58,9.46,24.03s-3.15,17.34-9.46,24.03c-6.3,6.7-14.18,9.85-23.64,9.85Z"/>
  <path class="cls-1" d="M1124.89,115.67v40.16c0,4.52,3.66,8.18,8.18,8.18h73.57c-1.55,6.16-3.76,11.78-6.6,16.77-6.14,10.78-14.7,18.67-26.17,24.11-11.6,5.5-25.74,8.29-42.04,8.29-15.14,0-28.82-3.47-40.66-10.32-11.9-6.88-21.49-16.54-28.49-28.74-7.04-12.23-10.6-26.65-10.6-42.84s3.51-30.55,10.43-42.68c6.86-12.02,16.64-21.54,29.08-28.29,12.5-6.79,27.29-10.23,43.97-10.23,13.92,0,27.08,2.59,39.12,7.69,11.82,5.02,21.36,12.3,28.37,21.64,2.26,3.02,6.65,3.4,9.4.81l33.04-31.03-3.53-4.08c-12.46-14.38-28.12-25.63-46.55-33.44C1177.06,3.94,1156.93,0,1135.55,0c-19.59,0-38.11,3.39-55.06,10.06-16.95,6.69-31.9,16.17-44.45,28.2-12.52,12-22.47,26.07-29.56,41.82-7.12,15.79-10.72,33.02-10.72,51.19s3.61,35.46,10.72,51.35c7.08,15.86,16.97,29.98,29.36,41.99,12.43,12.03,27.11,21.58,43.64,28.36,16.6,6.82,34.46,10.27,53.09,10.27,25.48,0,48.49-5.05,68.41-15.01,20.11-10.06,36.18-25.44,47.76-45.72,11.48-20.11,17.3-45.49,17.3-75.44v-11.42h-141.16Z"/>
</svg>