<?xml version="1.0" encoding="utf-8"?>
<!-- Generator: Adobe Illustrator 25.2.3, SVG Export Plug-In . SVG Version: 6.00 Build 0)  -->
<svg version="1.1" id="Layer_1" xmlns="http://www.w3.org/2000/svg" xmlns:xlink="http://www.w3.org/1999/xlink" x="0px" y="0px"
	 viewBox="0 0 149.3 61.5" style="enable-background:new 0 0 149.3 61.5;" xml:space="preserve">
<style type="text/css">
	.st0{fill:#DDBADA;}
	.st1{fill:#FFE600;}
	.st2{fill:#E04883;}
	.st3{fill:#01617E;}
	.st4{fill:#FFFFFF;}
	.st5{fill:none;}
	.st6{fill:#8B9934;}
</style>
<path class="st0" d="M8.6,39.7l1.4,0.1c1.3,0,2.6-0.1,3.9-0.3c0.2-0.1,0.5-0.2,0.8-0.2h0.1l0.2-0.1l0.6-0.2l0.4-0.1
	c1.5-1.9,2.2-4.2,2.2-6.6c0-2.3-1-4.6-2.7-6.1c-1.9-0.3-3.7-0.5-5.6-0.5c-1.4,0-2.8,0.2-4.2,0.5c-0.3,0.1-0.6,0.1-1,0.1v12.9
	c0.4,0,0.8,0,1.2,0.1C6.7,39.4,7.6,39.6,8.6,39.7z"/>
<path class="st1" d="M40,43c-3.7-1.8-15,2.6-19.2,3.7c-3.6,1-9.9,4.5-16.3,4.3v8.8h37.8C42.2,53.3,43.1,44.5,40,43z"/>
<path class="st2" d="M35.5,42.2c-5-3-13.6-0.5-10.5,7.4c0,0-3.2,3.2-1.4,5.8c-2,0.9-3.7,2.5-4.8,4.4h19.6
	C40.4,53.3,39.9,44.8,35.5,42.2z"/>
<path class="st3" d="M42.6,58.4c0,0,2.2-0.6,1.8-2.4c-0.2-1-0.9-1.9-1.8-2.3c1.1-0.4,1.8-1.5,1.8-2.7c-0.2-2-2.5-2.9-2.5-2.9
	s2.1-1.6,1.8-3.5c-0.3-1.2-1.3-2-2.5-2.1c0.7-0.9,2.5-1.3-0.1-4.2c0.2-0.3,0.4-0.6,0.5-0.9c1-2.7-3-8-6.7-5.3c0,0-4.3-0.1-2.5,3
	c-1.1,0-2.1,0.4-2.9,1.1c-0.7,0.9-0.8,2-0.4,3c0,0-2.2-1.1-3.4-0.1s-0.5,3.3-0.5,3.3s-1.8-1.5-3.5-0.7s-1,3.2-1,3.2s-1.5-2-3.4-1.2
	c-1.4,0.5-2.3,1.9-2.2,3.4c-0.1-0.4-0.5-2.2-3-2.2c-1.2-0.1-2.3,0.7-2.5,1.8c0-0.7-0.4-1.7-2.4-1.8c-0.9-0.1-1.9,0-2.7,0.5V56
	c0.8-0.3,1.4-0.9,1.7-1.7c0,0,1.1,4.3,3.9,0.2c0.3,1.2,1.5,1.9,2.6,1.6c0,0,0,0,0,0c2.9-0.5,2.7-2.4,2.7-2.4
	c0.5,1.2,1.7,1.8,2.9,1.5c1.4-0.1,2.4-1.3,2.2-2.7c0-0.2-0.1-0.4-0.1-0.6c0,0,1.8,2.2,3.9,1.1c2.3-1.3,1.1-3,0.8-3.5
	c0.4,0.4,1.9,1.9,3.7,0.9c2.1-1.1,0.6-3.3,0.6-3.3s2.2,1.6,3.7,0.9s0.6-3.2,0.6-3.2c0.4,0.4,1,0.6,1.6,0.6l-0.2,1.2
	c-0.1,2.7,1.8,3.1,1.8,3.1c-1.5,0.4-2.6,1.7-2.6,3.3c0,1.8,2.7,2.4,2.7,2.4s-2.9,1.1-2.3,3.7c0,0.2,0.1,0.4,0.2,0.6h9.5
	C44,59.1,43.3,58.6,42.6,58.4z"/>
<path class="st0" d="M14.4,50c4.7-0.7,9.9-2.2,13.7-5.2c1.9-1.7,3.6-3.6,5.1-5.6c0.8-0.9,1.7-1.7,2.7-2.4c2.1-1.4,3.5-0.4,5,1.2
	c0.2,0.2,0.6-0.1,0.5-0.3c-1.8-3.7-5.5-1.7-7.6,0.4c-1.8,1.7-3.2,3.8-5.1,5.4c-2.3,1.9-4.9,3.3-7.8,4.2c-5.2,1.7-10.8,2.3-16.3,1.8
	v0.9C7.8,50.5,11.1,50.4,14.4,50z"/>
<path class="st3" d="M65.9,10.6c2.4,0.1,4.7,1,6.4,2.8l-3,3.4c-0.9-0.9-2-1.4-3.3-1.4c-2.5,0-4.6,2.3-4.6,6.1s1.8,6.1,4.5,6.1
	c1.4,0,2.8-0.6,3.7-1.7l3,3.4c-1.7,2-4.2,3.1-6.8,3.1c-5.5,0-10.1-3.5-10.1-10.7S60.5,10.6,65.9,10.6z"/>
<path class="st3" d="M75.5,11H89v4.6h-8V19h6.8v4.6H81v3.7h8.3V32H75.5V11z"/>
<path class="st3" d="M104.6,32l-3.6-7h-2.1v7h-5.5V11h7.9c4.5,0,8.4,1.6,8.4,6.8c0.2,2.5-1.2,4.9-3.4,6.1l4.5,8.2H104.6z M98.9,20.5
	h2c2.2,0,3.3-1,3.3-2.8s-1.2-2.4-3.3-2.4h-2V20.5z"/>
<path class="st3" d="M117,15.7h-5.5V11h16.6v4.6h-5.5V32H117V15.7z"/>
<path class="st3" d="M131.2,11h14v4.6h-8.5V19h6.8v4.6h-6.8v3.7h8.4V32h-14L131.2,11z"/>
<path class="st3" d="M59.7,38.6v3.6c0,0.1-0.1,0.2-0.2,0.2h-0.3c-0.1,0-0.2-0.1-0.2-0.2v-3.6c-0.1-0.3-0.4-0.4-0.6-0.4
	c-0.2,0-0.3,0.2-0.4,0.4v3.6c0,0.1-0.1,0.2-0.2,0.2h-0.3c-0.1,0-0.2-0.1-0.2-0.2v-3.6c-0.1-0.3-0.4-0.4-0.6-0.4
	c-0.2,0-0.3,0.2-0.4,0.4v3.6c0,0.1-0.1,0.2-0.2,0.2h-0.3c-0.1,0-0.2-0.1-0.2-0.2v-3.6c0-0.6,0.5-1.2,1.1-1.2c0.3,0,0.6,0.1,0.9,0.4
	c0.4-0.5,1.2-0.5,1.6-0.1C59.6,38,59.8,38.3,59.7,38.6L59.7,38.6z"/>
<path class="st3" d="M61.6,38.1v1.5h0.9c0.1,0,0.2,0.1,0.2,0.2v0.3c0,0.1-0.1,0.2-0.2,0.2h-0.9v1.5h0.9c0.1,0,0.2,0.1,0.2,0.2v0.3
	c0,0.1-0.1,0.2-0.2,0.2h-1.2c-0.2,0-0.3-0.1-0.3-0.3v-4.3c0-0.2,0.1-0.3,0.3-0.3h1.2c0.1,0,0.2,0.1,0.2,0.2V38
	c0,0.1-0.1,0.2-0.2,0.2L61.6,38.1z"/>
<path class="st3" d="M66.2,38.6v2.6c0,0.6-0.5,1.2-1.1,1.2c0,0,0,0,0,0h-0.8c-0.2,0-0.3-0.1-0.3-0.3v-4.3c0-0.2,0.1-0.3,0.3-0.3H65
	C65.7,37.5,66.2,38,66.2,38.6z M65.6,38.6c0-0.3-0.2-0.5-0.5-0.5h-0.5v3.7H65c0.3,0,0.5-0.2,0.5-0.5V38.6z"/>
<path class="st3" d="M68.1,42.2c0,0.1-0.1,0.2-0.2,0.2l0,0h-0.3c-0.1,0-0.2-0.1-0.2-0.2v0v-4.6c0-0.1,0.1-0.2,0.2-0.2l0,0H68
	c0.1,0,0.2,0.1,0.2,0.2v0V42.2z"/>
<path class="st3" d="M71,39v-0.3c-0.1-0.3-0.3-0.5-0.6-0.4c-0.2,0-0.4,0.2-0.4,0.4c0,0.1,0,0.1,0,0.2l1.4,1.8
	c0.2,0.3,0.2,0.3,0.2,0.6c0.1,0.6-0.4,1.2-1,1.3c-0.6,0.1-1.2-0.4-1.3-1c0-0.1,0-0.1,0-0.2v-0.3c0-0.1,0.1-0.2,0.2-0.2l0,0h0.3
	c0.1,0,0.2,0.1,0.2,0.2v0v0.3c0.1,0.3,0.3,0.5,0.6,0.4c0.2,0,0.4-0.2,0.4-0.4c0-0.1,0-0.1,0-0.2l-1.4-1.8c-0.2-0.3-0.2-0.3-0.2-0.6
	c-0.1-0.6,0.4-1.2,1-1.3c0.6-0.1,1.2,0.4,1.3,1c0,0.1,0,0.1,0,0.2V39c0,0.1-0.1,0.2-0.2,0.2l0,0h-0.3C71,39.1,71,39.1,71,39
	C71,39,71,39,71,39z"/>
<path class="st3" d="M74.4,39v-0.3c0.1-0.3-0.1-0.5-0.4-0.6c-0.3-0.1-0.5,0.1-0.6,0.4c0,0.1,0,0.1,0,0.2v2.6
	c-0.1,0.3,0.1,0.5,0.4,0.6c0.3,0.1,0.5-0.1,0.6-0.4c0-0.1,0-0.1,0-0.2v-0.4c0-0.1,0.1-0.2,0.2-0.2l0,0h0.3c0.1,0,0.2,0.1,0.2,0.2v0
	v0.4c0.1,0.6-0.4,1.2-1,1.3c-0.6,0.1-1.2-0.4-1.3-1c0-0.1,0-0.1,0-0.2v-2.7c-0.1-0.6,0.4-1.2,1-1.3c0.6-0.1,1.2,0.4,1.3,1
	c0,0.1,0,0.1,0,0.2V39c0,0.1-0.1,0.2-0.2,0.2l0,0h-0.3C74.5,39.1,74.4,39.1,74.4,39L74.4,39z"/>
<path class="st3" d="M78.6,37.6v4.6c0,0.1-0.1,0.2-0.2,0.2l0,0h-0.3c-0.1,0-0.2-0.1-0.2-0.2v0v-2h-1v2c0,0.1-0.1,0.2-0.2,0.2l0,0
	h-0.3c-0.1,0-0.2-0.1-0.2-0.2v0v-4.6c0-0.1,0.1-0.2,0.2-0.2l0,0h0.3c0.1,0,0.2,0.1,0.2,0.2v0v2h1v-2c0-0.1,0.1-0.2,0.2-0.2l0,0h0.3
	C78.5,37.5,78.6,37.5,78.6,37.6L78.6,37.6z"/>
<path class="st3" d="M80.5,38.1v1.5h0.9c0.1,0,0.2,0.1,0.2,0.2v0v0.3c0,0.1-0.1,0.2-0.2,0.2l0,0h-0.9v1.5h0.9c0.1,0,0.2,0.1,0.2,0.2
	v0v0.3c0,0.1-0.1,0.2-0.2,0.2l0,0h-1.2c-0.2,0-0.3-0.1-0.3-0.3v-4.3c0-0.2,0.1-0.3,0.3-0.3h1.2c0.1,0,0.2,0.1,0.2,0.2v0V38
	c0,0.1-0.1,0.2-0.2,0.2l0,0L80.5,38.1z"/>
<path class="st3" d="M87,38.6v2.6c0,0.6-0.5,1.2-1.1,1.2c0,0,0,0,0,0H85c-0.2,0-0.3-0.1-0.3-0.3v-4.3c0-0.2,0.1-0.3,0.3-0.3h0.8
	C86.5,37.5,87,38,87,38.6z M86.4,38.6c0-0.3-0.2-0.5-0.5-0.5h-0.5v3.7h0.5c0.3,0,0.5-0.2,0.5-0.5V38.6z"/>
<path class="st3" d="M88.9,42.2c0,0.1-0.1,0.2-0.2,0.2l0,0h-0.3c-0.1,0-0.2-0.1-0.2-0.2v0v-4.6c0-0.1,0.1-0.2,0.2-0.2l0,0h0.3
	c0.1,0,0.2,0.1,0.2,0.2v0V42.2z"/>
<path class="st3" d="M92.5,38.6v3.6c0,0.1-0.1,0.2-0.2,0.2l0,0H92c-0.1,0-0.2-0.1-0.2-0.2v0v-2h-1v2c0,0.1-0.1,0.2-0.2,0.2l0,0h-0.3
	c-0.1,0-0.2-0.1-0.2-0.2v0v-3.6c0.1-0.6,0.6-1.1,1.3-1C92.1,37.6,92.5,38.1,92.5,38.6L92.5,38.6z M91.9,38.6
	c-0.1-0.3-0.4-0.4-0.6-0.4c-0.2,0-0.3,0.2-0.4,0.4v1h1V38.6z"/>
<path class="st3" d="M95.5,39v-0.3c-0.1-0.3-0.3-0.5-0.6-0.4c-0.2,0-0.4,0.2-0.4,0.4v2.7c-0.1,0.3,0.1,0.5,0.4,0.6
	c0.3,0.1,0.5-0.1,0.6-0.4c0-0.1,0-0.1,0-0.2v-1h-0.3c-0.1,0-0.2-0.1-0.2-0.2v-0.3c0-0.1,0.1-0.2,0.2-0.2l0,0h0.8
	c0.1,0,0.2,0.1,0.2,0.2v0v1.5c0,0.6-0.5,1.2-1.2,1.2s-1.2-0.5-1.2-1.2v-2.7c0-0.6,0.5-1.2,1.2-1.2s1.2,0.5,1.2,1.2l0,0V39
	c0,0.1-0.1,0.2-0.2,0.2l0,0h-0.3C95.5,39.1,95.5,39.1,95.5,39L95.5,39z"/>
<path class="st3" d="M99.7,38.6v3.6c0,0.1-0.1,0.2-0.2,0.2l0,0h-0.3c-0.1,0-0.2-0.1-0.2-0.2v0v-3.6c-0.1-0.3-0.4-0.4-0.6-0.4
	c-0.2,0-0.3,0.2-0.4,0.4v3.6c0,0.1-0.1,0.2-0.2,0.2l0,0h-0.3c-0.1,0-0.2-0.1-0.2-0.2v-3.6c0-0.6,0.5-1.2,1.2-1.2S99.7,38,99.7,38.6
	L99.7,38.6L99.7,38.6z"/>
<path class="st3" d="M103.3,38.6v2.6c0,0.6-0.5,1.2-1.2,1.2s-1.2-0.5-1.2-1.2v-2.6c0-0.6,0.5-1.2,1.2-1.2S103.3,38,103.3,38.6
	L103.3,38.6z M102.6,38.6c-0.1-0.3-0.4-0.4-0.6-0.4c-0.2,0-0.3,0.2-0.4,0.4v2.6c-0.1,0.3,0.1,0.6,0.4,0.6c0.3,0.1,0.6-0.1,0.6-0.4
	c0-0.1,0-0.2,0-0.3V38.6z"/>
<path class="st3" d="M106.1,39v-0.3c0-0.3-0.2-0.5-0.5-0.5l0,0c-0.3,0-0.5,0.2-0.5,0.5c0,0,0,0,0,0c0,0.1,0,0.1,0,0.2l1.4,1.8
	c0.2,0.3,0.2,0.3,0.2,0.6c0.1,0.6-0.4,1.2-1,1.3c-0.6,0.1-1.2-0.4-1.3-1c0-0.1,0-0.1,0-0.2v-0.3c0-0.1,0.1-0.2,0.2-0.2l0,0h0.3
	c0.1,0,0.2,0.1,0.2,0.2v0v0.3c0,0.3,0.2,0.5,0.5,0.5c0,0,0,0,0,0c0.3,0,0.5-0.2,0.5-0.5l0,0c0-0.1,0-0.1,0-0.2l-1.4-1.9
	c-0.2-0.3-0.2-0.3-0.2-0.6c-0.1-0.6,0.4-1.2,1-1.3c0.6-0.1,1.2,0.4,1.3,1c0,0.1,0,0.1,0,0.2V39c0,0.1-0.1,0.2-0.2,0.2l0,0h-0.3
	C106.2,39.1,106.1,39.1,106.1,39z"/>
<path class="st3" d="M109.7,37.6V38c0,0.1-0.1,0.2-0.2,0.2l0,0h-0.4v4.1c0,0.1-0.1,0.2-0.2,0.2l0,0h-0.3c-0.1,0-0.2-0.1-0.2-0.2v0
	v-4.2H108c-0.1,0-0.2-0.1-0.2-0.2v0v-0.3c0-0.1,0.1-0.2,0.2-0.2l0,0h1.5C109.6,37.5,109.7,37.5,109.7,37.6
	C109.7,37.6,109.7,37.6,109.7,37.6z"/>
<path class="st3" d="M111.5,42.2c0,0.1-0.1,0.2-0.2,0.2l0,0H111c-0.1,0-0.2-0.1-0.2-0.2v0v-4.6c0-0.1,0.1-0.2,0.2-0.2l0,0h0.3
	c0.1,0,0.2,0.1,0.2,0.2v0V42.2z"/>
<path class="st3" d="M113.4,38.1v1.5h0.9c0.1,0,0.2,0.1,0.2,0.2v0v0.3c0,0.1-0.1,0.2-0.2,0.2l0,0h-0.9v1.5h0.9
	c0.1,0,0.2,0.1,0.2,0.2v0v0.3c0,0.1-0.1,0.2-0.2,0.2l0,0h-1.2c-0.2,0-0.3-0.1-0.3-0.3v-4.3c0-0.2,0.1-0.3,0.3-0.3h1.2
	c0.1,0,0.2,0.1,0.2,0.2v0V38c0,0.1-0.1,0.2-0.2,0.2l0,0L113.4,38.1z"/>
<path class="st3" d="M118.1,39.1c0,0.3-0.1,0.7-0.4,0.9c0.2,0.2,0.4,0.5,0.4,0.8v1.5c0,0.1-0.1,0.2-0.2,0.2l0,0h-0.3
	c-0.1,0-0.2-0.1-0.2-0.2v0v-1.5c0-0.3-0.2-0.5-0.5-0.5c0,0,0,0,0,0h-0.5v2c0,0.1-0.1,0.2-0.2,0.2l0,0h-0.3c-0.1,0-0.2-0.1-0.2-0.2v0
	v-4.6c0-0.1,0.1-0.2,0.2-0.2l0,0h0.3c0.1,0,0.2,0.1,0.2,0.2v0v2h0.5c0.3,0,0.5-0.2,0.5-0.5v-1.5c0-0.1,0.1-0.2,0.2-0.2l0,0h0.3
	c0.1,0,0.2,0.1,0.2,0.2v0L118.1,39.1z"/>
<path class="st3" d="M124.2,39.3v0.3c0,0.1-0.1,0.2-0.2,0.2l0,0h-0.5v2.5c0,0.1-0.1,0.2-0.2,0.2l0,0h-1c-0.6,0-1.2-0.5-1.2-1.2v-1
	c0-0.3,0.1-0.6,0.4-0.8c-0.2-0.2-0.4-0.5-0.4-0.8c0-0.6,0.5-1.1,1.2-1.2h0.3c0.1,0,0.2,0.1,0.2,0.2v0V38c0,0.1-0.1,0.2-0.2,0.2l0,0
	h-0.3c-0.3-0.1-0.5,0.1-0.6,0.4s0.1,0.5,0.4,0.6c0.1,0,0.1,0,0.2,0h0.5v-0.5c0-0.1,0.1-0.2,0.2-0.2h0.3c0.1,0,0.2,0.1,0.2,0.2v0.5
	h0.5C124.1,39.1,124.2,39.2,124.2,39.3C124.2,39.3,124.2,39.3,124.2,39.3z M122.9,39.7h-0.5c-0.3,0-0.5,0.2-0.5,0.5v1
	c0,0.3,0.2,0.5,0.5,0.5c0,0,0,0,0,0h0.5V39.7z"/>
<path class="st3" d="M129.6,38.6v3.6c0,0.1-0.1,0.2-0.2,0.2l0,0h-0.3c-0.1,0-0.2-0.1-0.2-0.2v0v-2h-1v2c0,0.1-0.1,0.2-0.2,0.2l0,0
	h-0.3c-0.1,0-0.2-0.1-0.2-0.2v0v-3.6c0-0.6,0.5-1.2,1.1-1.2C129.1,37.5,129.6,38,129.6,38.6L129.6,38.6L129.6,38.6z M129,38.6
	c0-0.3-0.2-0.5-0.5-0.5c-0.3,0-0.5,0.2-0.5,0.5c0,0,0,0,0,0v1h1L129,38.6z"/>
<path class="st3" d="M133.2,38.6v2.6c0,0.6-0.5,1.2-1.1,1.2c0,0,0,0,0,0h-0.8c-0.2,0-0.3-0.1-0.3-0.3v-4.3c0-0.2,0.1-0.3,0.3-0.3
	l0,0h0.8C132.7,37.5,133.2,38,133.2,38.6z M132.6,38.6c0-0.3-0.2-0.5-0.5-0.5h-0.5v3.7h0.5c0.3,0,0.5-0.2,0.5-0.5V38.6z"/>
<path class="st3" d="M136.8,37.6v3.1c0,0.2-0.1,0.4-0.2,0.6l-0.5,1c0,0-0.1,0.1-0.1,0.1h-0.6c-0.1,0-0.1,0-0.1-0.1l-0.5-1
	c-0.1-0.2-0.2-0.4-0.2-0.6v-3.1c0-0.1,0.1-0.2,0.2-0.2l0,0h0.3c0.1,0,0.2,0.1,0.2,0.2v0v3.1c0,0.1,0,0.1,0,0.2l0.5,0.9l0.5-0.9
	c0-0.1,0-0.1,0-0.2v-3.1c0-0.1,0.1-0.2,0.2-0.2l0,0h0.3C136.6,37.5,136.7,37.5,136.8,37.6C136.8,37.6,136.8,37.6,136.8,37.6z"/>
<path class="st3" d="M138.7,42.2c0,0.1-0.1,0.2-0.2,0.2l0,0h-0.3c-0.1,0-0.2-0.1-0.2-0.2v0v-4.6c0-0.1,0.1-0.2,0.2-0.2l0,0h0.3
	c0.1,0,0.2,0.1,0.2,0.2v0V42.2z"/>
<path class="st3" d="M140.6,38.1v1.5h0.9c0.1,0,0.2,0.1,0.2,0.2v0v0.3c0,0.1-0.1,0.2-0.2,0.2l0,0h-0.9v1.5h0.9c0.1,0,0.2,0,0.2,0.1
	c0,0,0,0.1,0,0.1v0.3c0,0.1-0.1,0.2-0.2,0.2l0,0h-1.2c-0.2,0-0.3-0.1-0.3-0.3c0,0,0,0,0,0v-4.3c0-0.2,0.1-0.3,0.3-0.3l0,0h1.2
	c0.1,0,0.2,0.1,0.2,0.2v0V38c0,0.1-0.1,0.2-0.2,0.2l0,0L140.6,38.1z"/>
<path class="st3" d="M144.5,39v-0.3c0.1-0.3-0.1-0.5-0.4-0.6c-0.3-0.1-0.5,0.1-0.6,0.4c0,0.1,0,0.1,0,0.2c0,0.1,0,0.1,0,0.2l1.4,1.8
	c0.2,0.3,0.2,0.3,0.2,0.6c0.1,0.6-0.4,1.2-1,1.3c-0.6,0.1-1.2-0.4-1.3-1c0-0.1,0-0.1,0-0.2v-0.3c0-0.1,0.1-0.2,0.1-0.2h0.3
	c0.1,0,0.2,0.1,0.2,0.2v0v0.3c-0.1,0.3,0.1,0.5,0.4,0.6c0.3,0.1,0.5-0.1,0.6-0.4c0-0.1,0-0.1,0-0.2c0-0.1,0-0.1,0-0.2l-1.4-1.8
	c-0.2-0.3-0.2-0.3-0.2-0.6c-0.1-0.6,0.4-1.2,1-1.3c0.6-0.1,1.2,0.4,1.3,1c0,0.1,0,0.1,0,0.2V39c0,0.1-0.1,0.2-0.2,0.2l0,0h-0.3
	C144.6,39.2,144.5,39.1,144.5,39C144.5,39,144.5,39,144.5,39z"/>
<path class="st3" d="M68,51.8l1.4-2.1h-1.2V49h2.3v0.5l-1.4,2.1h1.4v0.7H68V51.8z"/>
<path class="st3" d="M72.5,49h2.2v0.8h-1.3v0.5h1.1V51h-1.1v0.6h1.3v0.7h-2.2V49z"/>
<path class="st3" d="M77,49h0.9v1.2l0,0l0.8-1.2h1l-1,1.4l1.2,2h-1l-0.8-1.3l-0.3,0.5v0.8h-0.9L77,49z"/>
<path class="st3" d="M81.8,49h2.2v0.8h-1.2v0.5h1.1V51h-1.1v0.6H84v0.7h-2.3V49z"/>
<path class="st3" d="M88,52.3l-0.6-1.1h-0.3v1.1h-0.9V49h1.3c0.7,0,1.3,0.2,1.3,1.1c0,0.4-0.2,0.8-0.5,1l0.7,1.3L88,52.3z
	 M87.1,50.5h0.3c0.4,0,0.5-0.2,0.5-0.4s-0.2-0.4-0.5-0.4h-0.3V50.5z"/>
<path class="st3" d="M93.2,49h0.9l0.3,1.5c0.1,0.4,0.2,0.7,0.2,1.1l0,0c0.1-0.4,0.2-0.7,0.2-1.1l0.4-1.5h0.9l-1,3.4h-1.1L93.2,49z"
	/>
<path class="st3" d="M98,50.7c-0.1-0.9,0.6-1.6,1.4-1.7s1.6,0.6,1.7,1.4c0,0.1,0,0.2,0,0.3c0.1,0.9-0.5,1.7-1.3,1.8
	c-0.9,0.1-1.7-0.5-1.8-1.3C98,50.9,98,50.8,98,50.7z M100.2,50.7c0-0.6-0.2-1-0.7-1s-0.7,0.3-0.7,1s0.2,1,0.7,1
	S100.2,51.3,100.2,50.7z"/>
<path class="st3" d="M103.1,50.7c-0.1-0.9,0.6-1.6,1.4-1.7s1.6,0.6,1.7,1.4c0,0.1,0,0.2,0,0.3c0.1,0.9-0.5,1.7-1.3,1.8
	c-0.9,0.1-1.7-0.5-1.8-1.3C103.1,50.9,103.1,50.8,103.1,50.7z M105.4,50.7c0-0.6-0.2-1-0.7-1s-0.7,0.3-0.7,1s0.2,1,0.7,1
	S105.4,51.3,105.4,50.7z"/>
<path class="st3" d="M110.2,52.3l-0.5-1.1h-0.3v1.1h-0.9V49h1.2c0.7,0,1.3,0.2,1.3,1.1c0,0.4-0.2,0.8-0.5,1l0.7,1.3L110.2,52.3z
	 M109.3,50.5h0.3c0.4,0,0.5-0.2,0.5-0.4s-0.2-0.4-0.5-0.4h-0.3V50.5z"/>
<path class="st3" d="M115.7,51.8l1.4-2.1h-1.3V49h2.3v0.5l-1.4,2.1h1.4v0.7h-2.4V51.8z"/>
<path class="st3" d="M120.1,50.7c-0.1-0.9,0.5-1.6,1.4-1.7s1.6,0.5,1.7,1.4c0,0.1,0,0.2,0,0.4c0.1,0.9-0.5,1.6-1.4,1.7
	s-1.6-0.5-1.7-1.4C120.1,50.9,120.1,50.8,120.1,50.7z M122.3,50.7c0-0.6-0.2-1-0.7-1s-0.7,0.3-0.7,1s0.2,1,0.7,1
	S122.3,51.3,122.3,50.7z"/>
<path class="st3" d="M127.2,52.3l-0.6-1.1h-0.3v1.1h-0.9V49h1.3c0.7,0,1.3,0.2,1.3,1.1c0,0.4-0.2,0.8-0.5,1l0.7,1.3L127.2,52.3z
	 M126.2,50.5h0.3c0.3,0,0.5-0.2,0.5-0.4s-0.2-0.4-0.5-0.4h-0.3V50.5z"/>
<path class="st3" d="M131.7,49c0.4,0,0.8,0.2,1.1,0.4l-0.5,0.5c-0.2-0.1-0.4-0.2-0.6-0.2c-0.5,0-0.8,0.4-0.8,1s0.3,1,0.9,1
	c0.1,0,0.2,0,0.3-0.1v-0.5h-0.5v-0.7h1.3V52c-0.3,0.3-0.7,0.4-1.2,0.4c-0.9,0.1-1.6-0.6-1.7-1.5c0-0.1,0-0.2,0-0.2
	C130,49.8,130.7,49,131.7,49C131.6,49,131.7,49,131.7,49z"/>
<rect x="55.7" y="45.4" class="st3" width="89.5" height="0.7"/>
<path class="st1" d="M23.6,5.7c0.9,2.2,2,4.2,3.3,6.2c1.7,2.1,2.3,5.5,0.9,7.5s-5.3,2.4-6.8,0.8s-2.8-4-1.4-6.8S23.2,8.5,23.6,5.7z"
	/>
<path class="st4" d="M25.2,14.4c-1.1,0.6-1.1,2.3-0.3,2.7c1,0.4,2.1-0.1,2.5-1.1c0,0,0-0.1,0-0.1C27.5,14.4,26.5,13.8,25.2,14.4z"/>
<path class="st5" d="M16.5,38.4c4.9-1.8,10.4-5.6,10.2-5.7c-0.2-0.1-4.1-5.3-12.9-6.6c-3.1-0.4-6.3-0.2-9.3,0.8v11.8
	C8.7,39.3,13.7,39.4,16.5,38.4z"/>
<path class="st6" d="M20.5,25.6c6.8,3.1,7.8,5.6,7.8,5.6s-0.9-5.7-9-8.8c-7.1-2.7-11.5-2-14.8-1v2.9C9.8,22.9,15.5,23.4,20.5,25.6z"
	/>
<path class="st6" d="M17.4,38.8c5.5-2,10.4-5.9,10.2-6.1c-0.2-0.2-4-6-13.9-7.4c-3.1-0.5-6.2-0.2-9.2,0.7v0.9c3-1,6.2-1.2,9.3-0.8
	c8.8,1.3,12.8,6.4,13,6.6s-5.3,3.9-10.2,5.7c-2.8,1-7.8,0.9-12,0.3v0.8C8.9,40.2,14.1,40,17.4,38.8z"/>
<path class="st1" d="M5.7,34.3c0.1,0.3-0.9,1-0.9,1s1-0.4,1.2-0.2s-1.4,1.3-1.4,1.3s1.4-0.7,1.6-0.4c0.2,0.3-1,1.9-1,1.9
	s1.2-1.4,1.6-1.3S6.9,38,6.9,38s0.5-1.3,0.9-1.1s0,1.6,0,1.6s0.7-1.3,1-1.3c0.6,0.1,0.6,1.6,0.6,1.6s0.2-1.6,0.5-1.7
	s0.5,1.1,0.5,1.1s0-1.1,0.4-1.2s1,1.6,1,1.6s-0.6-1.7-0.3-1.9s1.5,1.9,1.5,1.9s-0.7-1.8-0.4-2.3s2.1,1.2,2.1,1.2s-1.3-1.4-1.1-1.9
	s0.9-0.2,1.2,0c-0.3-0.1-1.1-0.6-0.9-0.9s1.6,0,1.6,0s-1.3-0.7-1.2-1s2.1-0.3,2.1-0.3s-1.6-0.4-1.6-0.7c0-0.7,1.6-0.8,1.6-0.8
	s-1.4-0.1-1.6-0.6c-0.1-0.3,1.1-0.9,1.1-0.9s-1.5,0.4-1.7,0s1.1-2.3,1.1-2.3s-1.1,1.1-1.7,0.9s0.2-2.2,0.2-2.2s-0.9,1.9-1.4,1.6
	s-0.2-1-0.1-1.6c0,0-0.8,1.6-1.4,1.3c-0.6-0.3-0.6-1.8-0.6-1.8s-0.3,1.7-0.8,1.8c-0.4,0.1-0.7-1.1-0.7-1.1s0.1,1.4-0.3,1.5
	C7.9,28.4,7,26.9,7,26.9s0.6,1.5,0.3,1.8s-1.1-0.4-1.1-0.4s0.5,0.8,0.2,1c-0.3,0.2-1.8-0.6-1.8-0.6s1.3,1.3,1.1,1.6s-0.7,0-1.2-0.2
	v0.2C4.8,30.6,5.1,30.9,5,31s-0.2,0.2-0.5,0.2v0.4C4.8,31.7,5,31.8,5,31.9c0,0.1-0.2,0.2-0.4,0.3v0.7c0.4,0.1,0.8,0.2,0.8,0.4
	c0,0.2-0.3,0.5-0.8,0.8v0.3C5.1,34.2,5.6,34.2,5.7,34.3z"/>
<path class="st1" d="M14.6,35.5h0.1H14.6z"/>
<path class="st3" d="M11.3,28.8c-2.2-0.8-4.6,0.4-5.4,2.6c0,0,0,0.1,0,0.1c-0.5,2,0.5,4.2,3.5,4.6c2,0.1,3.8-1.3,4.2-3.3
	C14,31.1,13,29.4,11.3,28.8z"/>
<path class="st4" d="M13.4,26.7c-1.1,0.3-1.8,1.4-1.5,2.5c0,0,0,0,0,0c0.3,0.9,1.3,1.4,2.2,1.1c0.2-0.1,0.3-0.1,0.5-0.2
	c0.8-0.5,1.2-1.5,0.8-2.5C15.2,26.9,14.3,26.5,13.4,26.7z"/>
<path class="st4" d="M16.7,28.9c-0.6,0.2-1,0.8-0.8,1.4c0,0,0,0,0,0c0.2,0.5,0.7,0.8,1.3,0.6c0.1,0,0.2-0.1,0.2-0.1
	c0.5-0.3,0.7-0.9,0.5-1.4C17.7,29,17.2,28.7,16.7,28.9z"/>
<path class="st0" d="M36.4,43.4c-0.2,0.1-0.4,0.3-0.3,0.5c0,0.2,0.2,0.3,0.3,0.3c2.2,0.5,1.8,6.8,1.9,8.5c0.1,2.3,0.1,4.7,0.1,7h1.3
	C39.9,53.7,39.9,42.6,36.4,43.4z"/>
<path class="st2" d="M44.5,7.3c0.2-1.9,0.7-3.8,1.4-5.6h-3.2c-0.6,1.9-0.8,4-0.5,6l-0.4,0.2c-0.4,0.2-0.8,0.5-1.1,0.8
	c-0.5-1.6-1.2-3.2-2-4.7c-0.5-0.8-1-1.5-1.5-2.3h-3.6c1.5,1.7,2.9,3.5,4,5.4c0.6,1.1,1.1,2.2,1.7,3.2c-1.9,3.4-1.5,8.3-1.5,8.3
	c1,8.9,6.1,9.8,6.1,9.8c0.4,4-5,10.8-5,10.8c0.8,2.7,3.9,6.2,8.7,7.8c0,2,0.2,7,0.2,12.5h4.4V13.1C50.8,10,47.7,7.4,44.5,7.3z"/>
<path class="st2" d="M48.3,7.3c0.5-2,1.4-3.9,2.5-5.5h-2.5c-0.9,1.7-1.3,3.6-1,5.5c0.1,0.3,0.3,0.4,0.6,0.3
	C48.1,7.6,48.2,7.5,48.3,7.3z"/>
<path class="st2" d="M10,4.4C8.1,4,6.4,3,4.5,2.6V5c1.6,0.6,3.3,1.6,4.8,2.1c2.2,0.7,4.5,0.3,6.4-0.9c1.6-1,2.4-2.8,3-4.5h-3.2
	C14.5,3.7,13.1,5.1,10,4.4z"/>
<path class="st1" d="M51.1,45.5c-0.9-0.9-1.8-1.8-2.6-2.8c-0.9-1.2-1.5-2.6-1.7-4.1C46.5,37,46,35.5,45.4,34
	c-0.5-1.4-1.2-2.8-2.3-3.9c-0.1-0.1-0.3-0.1-0.4,0c-0.1,0.1-0.1,0.2-0.1,0.3c0.4,1.7,1.6,3.2,2.2,4.8c0.6,1.6,1,3.2,1.3,4.9
	C46.8,43,49,44,51.1,45.5L51.1,45.5L51.1,45.5z"/>
<path class="st1" d="M49.3,37.6c-0.1-1.5-0.7-2.9-1.7-4c-0.5-0.4-1.1-0.7-1.7-1c-0.7-0.3-1.4-0.8-2.2-1.1c-0.1-0.1-0.3,0-0.4,0.1
	c0,0.1,0,0.2,0,0.3c0.5,0.9,1.7,1.1,2.5,1.5C47.6,34.3,48.8,35.8,49.3,37.6L49.3,37.6L49.3,37.6z"/>
<path class="st1" d="M45.7,35.7c0,1.8,1.5,3,2.5,4.3c0.4,0.8,0.8,1.5,1.3,2.3c0.5,0.6,1.8,0.4,2.5,0.5c0.1,0,0.2-0.1,0.1-0.2
	c-0.8-0.5-1.8-0.1-2.5-1c-0.5-0.5-0.3-1.5-0.7-2.1c-0.9-1.4-2.4-2.3-3-3.9L45.7,35.7z"/>
<path class="st1" d="M46.6,40.8c-0.1,1.9-0.4,3.5,1.3,4.8c0.7,0.6,1.6,0.9,2.3,1.6c0.4,0.4,0.9,0.7,1.5,0.8c0.1,0,0.1-0.2,0-0.2
	c-1-0.4-1.7-1.4-2.7-2c-0.7-0.3-1.3-0.8-1.7-1.4c-0.7-1-0.2-2.4-0.3-3.5C47,40.6,46.6,40.6,46.6,40.8L46.6,40.8z"/>
<path class="st1" d="M44.3,42.3c0.2-1.3-0.2-2.5,0-3.9s0.6-2.5,0.7-3.7c0-0.2-0.3-0.2-0.4,0c-0.4,1.3-0.7,2.7-0.8,4.1
	C43.8,40,44,41.2,44.3,42.3L44.3,42.3z"/>
<path class="st6" d="M12.1,14.7c0.8,1.4,1.6,3.2,3.2,3.9c1.5,0.6,3.2,0.6,4.7-0.1c2.9-1.4,3.5-5.2,6.1-6.7c3.4-1.9,6.4,0.6,8,4.2
	c0.1,0.3,0.2,0.5,0.2,0.8c0.9,2.8,0.1,8.5,0.1,8.5c-2.6,3.7-0.6,9,1.8,12.4c4,5.7,6.7,5.7,6.5-0.5s1.8-5.3,2.9-8.6
	c1.4-4-0.8-6.6-4.3-5.8s-2.4-3.6-3.8-6.3c-0.6-1.3-1.4-2.6-2.3-3.8c-2.7-4.2-8.6-6.5-12.3-1.5c-1.8,2.4-4.1,9.2-8.1,5.1
	c-1.4-1.5-1.8-3.6-3.5-4.9c-1.7-1.1-3.8-1.3-5.7-0.4c-0.5,0.2-0.9,0.5-1.3,0.8V15C7.1,12.5,9.8,10.7,12.1,14.7z"/>
<path class="st2" d="M32.8,22.1c0.5,1.3,1.2,2.5,2,3.7c1,1.3,1.4,3.3,0.5,4.5s-3.2,1.4-4,0.5c-1.1-1-1.5-2.6-0.8-4
	C31.2,25,32.6,23.7,32.8,22.1z"/>
<path class="st4" d="M34.1,26.9c-0.5,0-0.9,0.7-0.6,1c0.3,0.3,0.8,0.4,1.1,0.1c0,0,0,0,0.1-0.1c0.2-0.3,0.2-0.6-0.1-0.9
	C34.5,26.9,34.3,26.9,34.1,26.9z"/>
<path class="st0" d="M50.1,58.9c-0.1-0.3-0.3-0.6-0.6-0.8c-0.2-0.1-0.5-0.1-0.6,0.1c-0.1,0.1-0.1,0.3,0,0.5c0.2,0.3,0.5,0.5,0.8,0.6
	C49.8,59.2,50.2,59.1,50.1,58.9z"/>
<path class="st0" d="M50.4,57.7c0.4-0.2,0.5-0.7,0.5-1.1c0.1-0.3-0.1-0.5-0.4-0.6c0,0,0,0,0,0c-0.3-0.1-0.5,0.1-0.6,0.4
	c-0.1,0.3-0.1,0.6,0,0.9C50,57.4,50.1,57.8,50.4,57.7L50.4,57.7z"/>
<path class="st0" d="M51.9,56.8c0.3-0.4,0-1.1-0.1-1.5c-0.2-0.6-1.1-0.3-0.9,0.3c0.1,0.4,0.2,0.7,0.4,1
	C51.5,56.8,51.8,57.1,51.9,56.8L51.9,56.8z"/>
<path class="st0" d="M49.1,55.6c0.6,0,0.8-0.6,1-1.1c0.1-0.2,0.1-0.5-0.1-0.6c-0.2-0.2-0.5-0.2-0.7,0c-0.3,0.4-0.4,0.9-0.4,1.5
	C48.8,55.5,48.9,55.6,49.1,55.6C49.1,55.6,49.1,55.6,49.1,55.6L49.1,55.6z"/>
<path class="st0" d="M51.9,53.9c0.3-0.4-0.4-1.1-0.6-1.5c-0.1-0.2-0.4-0.3-0.7-0.1c-0.2,0.1-0.3,0.4-0.1,0.7l0,0
	C50.7,53.2,51.6,54.3,51.9,53.9L51.9,53.9z"/>
<path class="st0" d="M49.5,53.6L49.5,53.6c0.1,0,0.3-0.1,0.3-0.2c0.2-0.3,0.3-0.7,0.3-1.1c0-0.5-0.6-0.6-0.9-0.3
	c-0.2,0.2-0.2,0.5-0.2,0.8C49,53.1,49,53.6,49.5,53.6L49.5,53.6z"/>
<path class="st0" d="M51.5,51.2c0.2-0.2,0.3-0.4,0.4-0.7c0.1-0.2,0.2-0.4,0.3-0.7c0-0.3-0.2-0.4-0.5-0.4c0,0-0.1,0-0.1,0
	c-0.3,0.1-0.4,0.4-0.5,0.7c-0.2,0.3-0.2,0.7-0.1,1c0.1,0.2,0.3,0.3,0.4,0.2C51.4,51.3,51.5,51.3,51.5,51.2z"/>
<path class="st0" d="M50.3,51c0.3-0.3,0-1-0.2-1.3c-0.3-0.5-1.2-0.1-0.9,0.4c0.2,0.3,0.4,0.7,0.7,0.9C50,51.1,50.2,51.1,50.3,51
	L50.3,51z"/>
<path class="st0" d="M48.6,53c0.1-0.2,0.2-0.4,0.2-0.6c0.1-0.3,0.1-0.5,0.1-0.8c0-0.2-0.2-0.4-0.5-0.4c-0.2,0-0.4,0.2-0.4,0.4
	c0,0.3,0,0.5,0,0.8c0,0.3,0.1,0.5,0.3,0.7C48.4,53.1,48.5,53.1,48.6,53L48.6,53z"/>
<path class="st0" d="M51.4,58.4c0-0.6-1-0.5-0.9,0c0,0.5,0.1,0.9,0.3,1.4h0.5C51.5,59.5,51.4,58.7,51.4,58.4z"/>
<path class="st0" d="M49.2,59.8h0.9c0,0,0,0-0.1-0.1C49.8,59.5,49.5,59.6,49.2,59.8z"/>
<path class="st6" d="M42.9,13.6c-1.4,4.1,1.1,10,1.4,10.1c6.6,1.2,4.2-4.5,3.8-6.8c-0.6-3.3,1.8-7.5,4.3-10.3V1.8h-0.6
	c-0.3,0.3-0.7,0.5-1,0.9C47.8,5.3,44.6,8.3,42.9,13.6z"/>
</svg>
