<?xml version="1.0" standalone="no"?>
<!DOCTYPE svg PUBLIC "-//W3C//DTD SVG 20010904//EN"
 "http://www.w3.org/TR/2001/REC-SVG-20010904/DTD/svg10.dtd">
<svg version="1.0" xmlns="http://www.w3.org/2000/svg"
 width="792.000000pt" height="792.000000pt" viewBox="0 0 792.000000 792.000000"
 preserveAspectRatio="xMidYMid meet">
<metadata>
Created by potrace 1.14, written by Peter Selinger 2001-2017
</metadata>
<g transform="translate(0.000000,792.000000) scale(0.100000,-0.100000)"
fill="#000000" stroke="none">
<path d="M2273 7062 l-1693 -847 0 -2222 0 -2223 1698 -849 1697 -849 1698
849 1697 849 0 2220 0 2220 -1700 850 c-935 467 -1701 850 -1702 849 -2 0
-765 -381 -1695 -847z m4995 -3070 l-3 -2157 -1647 -825 -1648 -825 -1645 823
-1645 822 0 2160 0 2160 1647 824 1648 824 1648 -824 1647 -824 -2 -2158z"/>
<path d="M4285 6920 c-4 -7 -10 -43 -13 -79 l-4 -67 -72 -11 -71 -12 -40 39
c-62 60 -125 78 -125 36 0 -19 8 -27 34 -36 19 -6 46 -20 61 -32 l26 -20 -58
-35 -58 -35 -41 21 c-23 11 -58 34 -78 51 -31 27 -37 30 -42 15 -10 -25 14
-60 65 -96 25 -18 48 -34 50 -35 2 -2 -2 -16 -8 -32 -11 -27 -15 -29 -60 -24
-26 2 -73 -1 -104 -8 -51 -10 -57 -14 -57 -37 0 -23 3 -25 33 -19 64 13 132
17 144 8 7 -4 15 -22 19 -38 6 -30 4 -31 -53 -47 -32 -9 -82 -30 -110 -47 -42
-24 -53 -36 -53 -55 0 -14 3 -25 6 -25 3 0 43 18 87 39 110 54 124 57 131 31
3 -11 9 -29 12 -40 3 -13 1 -20 -8 -20 -7 0 -37 -11 -65 -25 -47 -21 -53 -28
-53 -55 0 -35 3 -36 38 -11 15 10 36 21 47 24 11 3 30 8 41 12 18 5 27 -3 52
-43 l29 -48 -39 -28 c-47 -34 -78 -80 -71 -107 6 -23 21 -25 30 -3 7 18 91 84
108 84 6 0 26 -18 44 -41 l33 -41 -33 -28 c-19 -16 -52 -31 -74 -35 -337 -52
-743 -168 -1100 -315 -188 -77 -547 -261 -712 -365 -507 -317 -827 -664 -872
-943 -9 -56 -1 -210 15 -300 23 -126 143 -238 316 -296 152 -51 224 -60 483
-61 249 0 319 6 564 52 883 162 1894 675 2320 1177 75 88 181 249 181 275 0
11 3 12 12 3 9 -9 17 6 36 64 21 69 25 75 45 70 12 -4 43 -12 70 -18 26 -6 47
-15 47 -20 0 -5 -9 -26 -20 -48 -21 -40 -26 -85 -12 -94 9 -6 62 96 62 119 0
8 3 15 6 15 14 0 100 -23 106 -29 4 -4 1 -31 -7 -61 -8 -30 -15 -67 -15 -82 0
-52 18 -28 35 45 9 39 18 77 20 84 3 8 15 9 42 3 21 -5 50 -11 65 -14 24 -5
26 -9 19 -34 -12 -40 -12 -112 0 -112 5 0 9 8 9 18 0 10 7 39 16 65 l16 47 68
0 68 0 -5 -64 c-4 -41 -2 -66 6 -70 7 -5 11 3 11 23 0 17 8 46 17 66 16 35 17
35 79 35 35 0 66 5 69 10 5 8 12 7 22 -2 12 -9 13 -25 8 -75 -4 -42 -3 -63 4
-63 15 0 24 45 19 94 l-5 42 53 10 c30 5 54 7 54 3 0 -14 102 -119 116 -119
27 0 14 43 -25 79 -22 20 -41 42 -43 49 -2 7 15 21 37 31 l40 18 74 -39 c47
-25 77 -36 83 -30 19 19 -3 49 -52 72 -28 13 -50 25 -50 28 0 2 14 24 32 48
37 52 36 52 191 -24 5 -2 7 9 5 24 -4 33 -50 68 -110 84 -33 9 -38 15 -38 39
l0 28 90 -5 90 -5 0 27 c0 24 -3 26 -47 27 -71 1 -138 13 -137 24 0 6 -3 25
-7 42 -7 31 -6 33 30 38 84 13 96 19 99 49 3 28 2 29 -30 22 -18 -4 -54 -10
-80 -13 -44 -5 -47 -4 -63 27 -9 17 -15 34 -12 36 2 2 28 5 58 7 50 2 54 4 54
27 0 24 -2 25 -80 28 -72 3 -94 10 -95 34 0 12 67 48 89 48 17 0 22 5 19 23
-5 35 -54 35 -105 -2 l-41 -30 -23 26 c-24 24 -24 25 -4 40 11 8 39 24 63 35
33 15 42 24 42 44 0 22 -3 24 -22 18 -32 -9 -78 -33 -111 -57 l-29 -20 -26 27
-26 26 37 38 c20 21 37 45 37 54 0 23 -21 34 -31 16 -4 -8 -27 -27 -49 -43
l-41 -28 -31 31 c-27 27 -30 33 -18 47 7 9 26 23 42 31 20 10 28 22 28 40 0
22 -3 24 -22 19 -29 -9 -88 -53 -88 -66 0 -16 -24 -10 -54 14 l-29 23 40 42
c22 23 47 42 56 42 11 0 17 8 17 25 0 48 -71 20 -114 -45 l-27 -41 -37 22
c-63 38 -67 44 -39 65 14 11 32 24 41 29 19 12 11 55 -10 55 -7 0 -32 -18 -55
-40 l-43 -40 -53 27 c-29 16 -53 31 -53 34 0 4 20 22 45 40 33 26 44 41 45 62
0 15 -5 27 -12 27 -6 0 -38 -23 -70 -51 l-60 -52 -49 23 c-27 13 -49 25 -49
28 0 2 14 21 30 42 19 24 30 50 30 69 0 41 -12 39 -45 -9 -15 -21 -38 -46 -52
-55 -23 -16 -28 -15 -89 11 -35 16 -64 31 -64 34 0 4 20 30 45 59 43 50 55 83
36 95 -11 7 -84 -71 -105 -112 l-16 -31 -62 23 c-34 13 -64 28 -66 34 -2 6 11
38 28 72 28 56 33 100 11 100 -9 0 -71 -130 -71 -148 0 -16 -13 -15 -77 5 -47
15 -53 20 -48 38 13 41 17 105 8 105 -11 0 -33 -66 -33 -99 0 -11 -2 -21 -5
-21 -17 0 -141 34 -149 41 -5 4 1 23 13 44 21 37 30 101 11 90 -17 -11 -50
-83 -50 -110 0 -20 -4 -25 -17 -21 -10 3 -44 10 -76 15 -32 6 -62 13 -68 16
-5 4 -9 25 -9 48 0 23 -5 49 -10 57 -7 11 -10 -2 -10 -42 l0 -58 -32 0 c-18 0
-50 3 -70 6 l-37 7 24 42 c24 39 34 105 17 105 -4 0 -25 -34 -46 -75 l-39 -75
-63 0 c-71 0 -72 1 -55 74 10 42 0 89 -14 66z m-94 -991 c16 -11 29 -24 29
-29 0 -4 -23 -13 -51 -20 -48 -12 -50 -14 -47 -44 3 -36 5 -36 99 -10 l67 18
43 -34 c24 -19 45 -35 47 -36 2 -1 -9 -21 -24 -44 -18 -27 -28 -55 -28 -82 -1
-50 18 -60 33 -17 13 36 57 99 71 99 11 0 110 -61 110 -68 0 -2 -16 -22 -35
-43 -26 -29 -35 -48 -35 -74 0 -19 2 -35 5 -35 3 0 32 27 64 60 l59 60 55 -32
55 -31 -30 -53 c-29 -53 -35 -104 -12 -111 7 -2 21 16 33 40 12 24 32 54 46
67 l25 23 51 -23 c42 -20 49 -27 44 -45 -3 -11 -8 -44 -12 -72 -5 -44 -3 -53
10 -53 17 0 22 12 33 73 3 20 10 40 15 43 5 3 36 -7 69 -22 l61 -27 -36 -37
c-35 -36 -45 -73 -23 -86 7 -5 31 13 62 48 45 49 54 54 74 45 28 -13 28 -18
-8 -86 -51 -94 -128 -190 -255 -316 -232 -231 -575 -462 -950 -640 -190 -91
-214 -100 -225 -89 -5 5 -165 318 -355 697 -245 486 -351 687 -363 688 -59 3
363 149 614 213 137 34 382 86 411 86 2 0 3 -11 3 -24 0 -39 20 -42 48 -7 42
54 103 66 153 30z m-957 -1014 c190 -374 348 -688 351 -697 8 -21 -19 -36
-168 -89 -239 -86 -406 -135 -652 -189 -145 -33 -322 -57 -505 -71 -284 -21
-528 11 -696 92 -278 132 -302 391 -66 705 160 212 481 472 830 672 206 118
540 277 554 263 3 -3 162 -312 352 -686z"/>
<path d="M4637 3803 c-4 -3 -7 -480 -7 -1060 l0 -1053 110 0 110 0 0 490 0
490 181 -2 180 -3 289 -485 288 -485 131 -3 c72 -1 131 0 131 4 0 3 -135 226
-300 494 -165 268 -300 492 -300 498 0 5 21 12 48 16 77 11 182 53 254 102
146 99 228 260 228 442 -1 213 -98 381 -270 465 -104 51 -211 76 -375 87 -159
11 -688 13 -698 3z m806 -208 c198 -42 302 -149 314 -322 15 -209 -93 -337
-325 -389 -45 -10 -152 -17 -324 -21 l-258 -6 0 377 0 376 263 0 c190 0 281
-4 330 -15z"/>
<path d="M2311 3361 c-9 -16 -522 -1198 -538 -1239 -4 -10 11 -12 68 -10 l73
3 67 160 67 160 328 0 327 0 68 -160 67 -160 76 -3 75 -3 -272 633 -273 633
-61 3 c-53 2 -63 0 -72 -17z m204 -471 c70 -168 130 -311 132 -317 4 -10 -54
-13 -271 -13 l-276 0 10 25 c74 194 265 634 271 623 4 -7 64 -150 134 -318z"/>
<path d="M3177 3374 c-4 -4 -7 -290 -7 -636 l0 -628 65 0 65 0 2 548 3 547
192 -460 c105 -253 208 -499 228 -547 l37 -88 37 0 37 0 224 539 225 539 3
-539 2 -539 70 0 70 0 -2 633 -3 632 -100 0 -99 0 -211 -517 c-115 -285 -212
-518 -215 -518 -3 0 -100 233 -217 518 l-211 517 -94 3 c-52 1 -97 0 -101 -4z"/>
</g>
</svg>
